<svg preserveAspectRatio="none" width="100%" height="100%" overflow="visible" style="display: block;" viewBox="0 0 95 95" fill="none" xmlns="http://www.w3.org/2000/svg">
<g id="Simplification">
<path id="Vector" d="M46.2012 16.6992C47.0584 16.6992 47.9156 16.6992 48.7988 16.6992C49.5278 17.9219 49.7504 18.6616 49.7447 20.1115C49.7443 20.3077 49.7443 20.3077 49.7439 20.5077C49.7429 20.9236 49.7405 21.3395 49.7382 21.7554C49.7372 22.038 49.7364 22.3207 49.7356 22.6034C49.7336 23.2948 49.7304 23.9863 49.7266 24.6777C50.2164 24.6777 50.7062 24.6777 51.2109 24.6777C51.2722 24.8002 51.3334 24.9227 51.3965 25.0488C51.8693 25.1564 51.8693 25.1564 52.4482 25.2148C52.6697 25.2424 52.8913 25.2699 53.1195 25.2983C53.3584 25.327 53.5973 25.3556 53.8434 25.3851C56.2205 25.6884 58.5344 26.1345 60.8594 26.7188C60.9605 26.5929 61.0617 26.4671 61.166 26.3375C62.0248 25.2776 62.8996 24.2559 63.8383 23.2651C64.2877 22.7466 64.2877 22.7466 64.7559 21.709C65.6743 21.709 66.5928 21.709 67.5391 21.709C68.082 22.6761 68.4497 23.355 68.2812 24.4922C67.7779 25.4771 66.9792 26.2378 66.2265 27.0398C65.835 27.4482 65.835 27.4482 65.6836 28.0176C65.7448 28.2013 65.8061 28.385 65.8691 28.5742C66.2112 28.6845 66.2112 28.6845 66.6113 28.7598C66.8855 28.8912 67.1557 29.0311 67.4224 29.1772C67.6511 29.3007 67.6511 29.3007 67.8844 29.4266C68.2025 29.6002 68.5205 29.7742 68.8383 29.9484C68.991 30.0307 69.1437 30.113 69.301 30.1978C69.4391 30.2733 69.5773 30.3489 69.7196 30.4268C70.1381 30.6351 70.1381 30.6351 70.6296 30.7109C71.0645 30.8008 71.0645 30.8008 71.4355 31.1719C71.6829 31.2339 71.9303 31.2957 72.1777 31.3574C72.4557 31.5074 72.728 31.6682 72.9953 31.8365C73.1486 31.933 73.3019 32.0295 73.4599 32.129C73.6185 32.2303 73.777 32.3316 73.9404 32.4359C74.099 32.5351 74.2576 32.6342 74.421 32.7363C75.1801 33.2177 75.8128 33.6849 76.4453 34.3262C76.9597 34.6921 76.9597 34.6921 77.3962 34.8712C77.7441 35.0684 77.7441 35.0684 77.9297 35.625C78.3544 35.8798 78.7568 36.0244 79.2285 36.1816C79.2897 36.3041 79.351 36.4266 79.4141 36.5527C79.5978 36.614 79.7814 36.6752 79.9707 36.7383C80.0319 36.922 80.0932 37.1057 80.1562 37.2949C80.2749 37.3217 80.3935 37.3485 80.5157 37.3761C80.642 37.4105 80.7683 37.445 80.8984 37.4805C81.0221 37.7279 81.1458 37.9753 81.2695 38.2227C81.392 38.2533 81.5145 38.2839 81.6406 38.3154C81.7631 38.346 81.8855 38.3767 82.0117 38.4082C82.2089 38.7677 82.2089 38.7677 82.3828 39.1504C82.915 39.5405 82.915 39.5405 83.4961 39.707C83.6243 39.9521 83.7475 40.1998 83.8672 40.4492C84.1576 40.7588 84.1576 40.7588 84.4934 41.0291C84.602 41.1214 84.7106 41.2137 84.8225 41.3088C85.1603 41.5748 85.1603 41.5748 85.5589 41.7509C86.0011 41.9821 86.1578 42.2996 86.4156 42.7149C86.9558 43.4786 87.6794 44.3263 88.5406 44.7139C88.6516 44.7761 88.7626 44.8383 88.877 44.9023C88.9135 45.0659 88.9135 45.0659 88.9509 45.2328C89.1506 45.9693 89.8477 46.4336 90.4034 46.931C90.6817 47.1927 90.6817 47.1927 91.1035 47.6855C91.0919 48.0588 91.0919 48.0588 90.918 48.4277C90.8773 48.5801 90.8366 48.7325 90.7948 48.8894C90.1636 50.7444 88.8925 51.8629 87.4689 53.1542C87.161 53.4483 87.161 53.4483 87.0215 53.9941C86.9105 54.0171 86.7995 54.0401 86.6852 54.0637C85.9273 54.2803 85.5848 55.0358 85.166 55.6641C85.0536 55.6897 84.9412 55.7152 84.8254 55.7416C84.2506 55.8962 83.9785 56.2279 83.5657 56.6498C83.3497 56.8668 83.3497 56.8668 83.1293 57.0883C82.7925 57.4752 82.5905 57.7985 82.3828 58.2617C82.0805 58.6327 81.9266 58.7964 81.4551 58.8995C80.9444 59.0432 80.8063 59.3077 80.5273 59.7461C80.4661 59.8686 80.4049 59.991 80.3418 60.1172C80.1581 60.1784 79.9744 60.2396 79.7852 60.3027C79.7239 60.4252 79.6627 60.5477 79.5996 60.6738C79.4159 60.7351 79.2322 60.7963 79.043 60.8594C78.9817 60.9818 78.9205 61.1043 78.8574 61.2305C78.6565 61.2649 78.6565 61.2649 78.4515 61.3C77.7811 61.449 77.3568 61.7406 76.8164 62.1582C76.7552 62.3419 76.6939 62.5256 76.6309 62.7148C76.1786 62.9236 76.1786 62.9236 75.7031 63.0859C75.3011 63.2406 75.3011 63.2406 75.1465 63.6426C75.0393 63.6655 74.9322 63.6885 74.8218 63.7122C74.367 63.8073 74.367 63.8073 73.9636 64.1992C73.4766 64.5703 73.4766 64.5703 72.9779 64.6515C72.0668 64.8062 71.3169 65.2503 70.5078 65.6836C70.5078 65.8061 70.5078 65.9285 70.5078 66.0547C70.3232 66.0736 70.1385 66.0925 69.9483 66.1119C69.1666 66.2235 68.4922 66.497 67.771 66.8085C66.4963 67.3535 66.4963 67.3535 65.8691 67.3535C65.9811 67.4879 66.093 67.6224 66.2083 67.7608C66.6559 68.3023 67.0987 68.8473 67.5391 69.3945C67.6302 69.506 67.7213 69.6174 67.8152 69.7323C68.3342 70.423 68.387 70.9603 68.2812 71.8066C68.0145 72.4213 68.0145 72.4213 67.7246 72.9199C67.6634 73.0424 67.6021 73.1648 67.5391 73.291C66.6206 73.291 65.7021 73.291 64.7559 73.291C64.6296 73.0327 64.6296 73.0327 64.5007 72.7692C63.8931 71.6982 63.0037 70.836 62.1582 69.9512C62.051 69.8084 61.9439 69.6656 61.8335 69.5185C61.0914 68.9683 60.2388 69.1466 59.3584 69.2581C58.9644 69.3204 58.5728 69.3915 58.1805 69.4641C56.6895 69.7199 55.2008 69.8717 53.6926 69.986C53.4904 70.0015 53.2882 70.017 53.0799 70.033C51.9589 70.1132 50.8503 70.152 49.7266 70.1367C49.7309 70.4047 49.7309 70.4047 49.7354 70.6782C49.7455 71.3459 49.7519 72.0136 49.7571 72.6814C49.7599 72.9695 49.7637 73.2576 49.7686 73.5457C49.7754 73.9617 49.7785 74.3775 49.7809 74.7935C49.7838 74.9207 49.7867 75.048 49.7896 75.1791C49.79 76.3854 49.3274 77.2435 48.7988 78.3008C47.9416 78.3008 47.0844 78.3008 46.2012 78.3008C45.4568 77.0522 45.2451 76.2362 45.2553 74.7667C45.2557 74.5521 45.2557 74.5521 45.2561 74.3331C45.2571 73.8775 45.2595 73.4219 45.2618 72.9663C45.2628 72.6568 45.2636 72.3473 45.2644 72.0378C45.2664 71.2804 45.2696 70.523 45.2734 69.7656C45.1181 69.7725 45.1181 69.7725 44.9597 69.7795C43.5409 69.8135 42.1928 69.611 40.7971 69.3713C40.6765 69.351 40.5558 69.3306 40.4315 69.3097C38.0547 68.9067 35.7238 68.3589 33.3984 67.7246C33.1123 67.6468 33.1123 67.6468 32.8203 67.5675C32.3326 67.4347 31.8449 67.3016 31.3574 67.168C28.8703 69.6711 28.8703 69.6711 26.9043 72.5488C26.7818 72.6713 26.6594 72.7937 26.5332 72.9199C26.472 73.0424 26.4107 73.1648 26.3477 73.291C26.0268 73.2961 25.706 73.2996 25.3851 73.3026C25.2065 73.3048 25.0278 73.3069 24.8437 73.3091C24.3266 73.2917 23.8756 73.2509 23.3789 73.1055C23.147 72.6532 23.147 72.6532 23.0078 72.1777C22.9466 72.0553 22.8854 71.9328 22.8223 71.8066C22.7797 70.7079 23.0078 69.973 23.7408 69.1602C23.8395 69.0576 23.9382 68.9551 24.0399 68.8495C24.2424 68.6272 24.4446 68.4047 24.6466 68.182C24.7462 68.0741 24.8459 67.9662 24.9485 67.855C25.3587 67.4016 25.7367 66.9287 26.1157 66.449C26.2334 66.3002 26.3511 66.1514 26.4723 65.9982C26.5536 65.8943 26.635 65.7905 26.7188 65.6836C26.065 65.1577 25.4929 64.9634 24.6777 64.7559C24.1211 64.5703 24.1211 64.5703 23.7616 64.292C23.4077 63.9977 23.4077 63.9977 23.0342 63.9292C22.5867 63.8154 22.2375 63.6377 21.8322 63.4172C21.6806 63.3357 21.5289 63.2543 21.3727 63.1704C21.0571 62.9989 20.7416 62.8274 20.4261 62.6558C19.6294 62.228 18.8721 61.8513 17.998 61.6016C17.2628 61.3853 16.8524 61.2219 16.3281 60.6738C16.2205 60.649 16.1129 60.6241 16.002 60.5984C15.4783 60.4598 15.0762 60.2209 14.6118 59.9432C14.4463 59.8459 14.2808 59.7485 14.1103 59.6482C13.9849 59.5581 13.8596 59.4679 13.7305 59.375C13.7305 59.2525 13.7305 59.1301 13.7305 59.0039C13.4243 58.9427 13.1182 58.8814 12.8027 58.8184C12.8027 58.6959 12.8027 58.5734 12.8027 58.4473C12.6719 58.4298 12.5411 58.4123 12.4063 58.3944C11.7777 58.2374 11.3404 57.9741 10.7965 57.6239C10.5249 57.452 10.5249 57.452 10.2478 57.2767C10.1113 57.1732 9.9747 57.0696 9.83398 56.9629C9.83398 56.8404 9.83398 56.718 9.83398 56.5918C9.61011 56.5574 9.61011 56.5574 9.38171 56.5222C9.22481 56.4839 9.06791 56.4457 8.90625 56.4062C8.8144 56.2226 8.8144 56.2226 8.7207 56.0352C8.59824 55.9739 8.47578 55.9127 8.34961 55.8496C7.23633 55.1074 7.23633 55.1074 6.9696 54.8175C6.70108 54.5271 6.70108 54.5271 6.34338 54.4696C5.74509 54.3158 5.31821 53.9853 4.82422 53.623C4.76299 53.5006 4.70176 53.3781 4.63867 53.252C4.51621 53.1907 4.39375 53.1295 4.26758 53.0664C4.14512 53.0052 4.02266 52.9439 3.89648 52.8809C3.99831 52.2071 4.15579 51.7669 4.55605 51.2167C4.65393 51.0813 4.75182 50.9458 4.85267 50.8062C4.95809 50.6642 5.06351 50.5223 5.17212 50.376C5.33312 50.1555 5.33312 50.1555 5.49737 49.9305C6.25878 48.8991 7.05713 47.9071 7.91537 46.9546C8.38357 46.4316 8.38357 46.4316 8.63663 45.788C8.66437 45.6795 8.69212 45.5709 8.7207 45.459C8.96369 45.3268 9.21221 45.2048 9.46289 45.0879C9.79314 44.7967 10.1134 44.494 10.4254 44.1833C10.6705 43.943 10.6705 43.943 10.9204 43.6977C11.3096 43.2427 11.3918 43.052 11.5039 42.4902C11.7395 42.1807 11.7395 42.1807 12.0258 41.8988C12.1188 41.8043 12.2118 41.7099 12.3077 41.6125C12.6172 41.377 12.6172 41.377 12.9767 41.2965C13.5069 41.1509 13.7551 40.8629 14.1364 40.4724C14.2653 40.3428 14.3942 40.2131 14.527 40.0796C14.8813 39.7098 14.8813 39.7098 15.0293 39.1504C15.1441 39.1274 15.2589 39.1045 15.3772 39.0808C15.8227 38.9981 15.8227 38.9981 16.0498 38.501C16.3281 38.0371 16.3281 38.0371 16.7108 37.9327C16.8888 37.8926 16.8888 37.8926 17.0703 37.8516C17.1315 37.7291 17.1928 37.6066 17.2559 37.4805C17.3171 37.358 17.3783 37.2355 17.4414 37.1094C17.6874 37.0423 17.9348 36.98 18.1836 36.9238C18.2754 36.6483 18.2754 36.6483 18.3691 36.3672C18.7518 36.2396 18.7518 36.2396 19.1113 36.1816C19.1113 36.0592 19.1113 35.9367 19.1113 35.8105C19.3563 35.7493 19.6012 35.6881 19.8535 35.625C19.8535 35.5025 19.8535 35.3801 19.8535 35.2539C20.0372 35.1927 20.2209 35.1314 20.4102 35.0684C20.4714 34.9459 20.5326 34.8234 20.5957 34.6973C20.7794 34.636 20.9631 34.5748 21.1523 34.5117C21.336 34.3893 21.5197 34.2668 21.709 34.1406C21.8927 34.0182 22.0764 33.8957 22.2656 33.7695C22.3575 33.6739 22.4493 33.5782 22.5439 33.4796C22.8223 33.2129 22.8223 33.2129 23.3789 33.0273C23.597 32.8437 23.597 32.8437 23.8196 32.6562C24.3189 32.2758 24.6202 32.1698 25.2344 32.0996C25.2344 31.9771 25.2344 31.8547 25.2344 31.7285C25.3798 31.6711 25.5252 31.6137 25.675 31.5546C26.3032 31.3057 26.3032 31.3057 26.8115 30.882C27.0898 30.6152 27.0898 30.6152 27.4609 30.6152C27.3559 29.8947 27.027 29.5469 26.5332 29.0265C25.7557 28.1884 25.0242 27.3253 24.3095 26.4332C24.0115 26.0693 23.7042 25.7351 23.3789 25.3967C22.8794 24.6787 22.7665 24.0616 22.8223 23.1934C23.0542 22.5439 23.0542 22.5439 23.3789 22.0801C23.5626 22.0188 23.7463 21.9576 23.9355 21.8945C24.1192 21.8027 24.1192 21.8027 24.3066 21.709C24.6543 21.6959 25.0024 21.6933 25.3503 21.6974C25.6295 21.6999 25.6295 21.6999 25.9142 21.7025C26.0573 21.7046 26.2003 21.7068 26.3477 21.709C26.5313 22.0764 26.5313 22.0764 26.7188 22.4512C26.8412 22.4512 26.9637 22.4512 27.0898 22.4512C27.1099 22.6058 27.1099 22.6058 27.1304 22.7636C27.3308 23.3576 27.6785 23.6802 28.1104 24.1327C28.9098 24.9841 29.66 25.863 30.392 26.7738C30.8887 27.3833 31.4002 27.9792 31.9141 28.5742C32.0772 28.5172 32.2403 28.4603 32.4084 28.4016C37.9203 26.4886 37.9203 26.4886 40.368 25.965C40.5227 25.9318 40.6773 25.8986 40.8367 25.8644C42.3033 25.5725 43.7893 25.4094 45.2734 25.2344C45.2691 24.9495 45.2691 24.9495 45.2646 24.6588C45.2545 23.9496 45.2481 23.2404 45.2429 22.5311C45.2401 22.225 45.2363 21.9189 45.2314 21.6128C45.2246 21.1711 45.2215 20.7294 45.2191 20.2877C45.2162 20.1523 45.2133 20.017 45.2104 19.8775C45.21 18.63 45.6446 17.8124 46.2012 16.6992ZM63.457 30.2441C63.6426 30.6152 63.6426 30.6152 63.6426 30.6152L63.457 30.2441ZM63.6426 30.6152C63.8281 30.9863 63.8281 30.9863 63.8281 30.9863L63.6426 30.6152ZM64.0137 30.8008C63.7451 31.6066 64.138 32.1058 64.4891 32.8302C68.235 40.8992 68.2298 50.2112 65.2893 58.5168C64.2842 61.2352 62.8695 63.8516 61.2305 66.2402C61.864 66.4514 61.9605 66.4067 62.5525 66.1663C62.6989 66.1079 62.8452 66.0496 62.9961 65.9895C63.2242 65.8955 63.2242 65.8955 63.457 65.7996C63.7585 65.6782 64.06 65.5569 64.3616 65.4357C64.495 65.3811 64.6285 65.3265 64.766 65.2702C65.068 65.1503 65.3754 65.0442 65.6836 64.9414C65.8252 64.8534 65.9668 64.7654 66.1127 64.6747C66.6402 64.368 67.1457 64.2027 67.7246 64.0137C68.0984 63.8337 68.4704 63.6495 68.8379 63.457C68.8379 63.3346 68.8379 63.2121 68.8379 63.0859C69.4122 62.7714 69.865 62.5399 70.5194 62.4597C71.2367 62.3071 71.4884 61.9328 71.9922 61.416C72.514 61.2653 72.514 61.2653 72.9199 61.2305C72.9199 61.108 72.9199 60.9855 72.9199 60.8594C73.2261 60.7981 73.5322 60.7369 73.8477 60.6738C73.8477 60.5514 73.8477 60.4289 73.8477 60.3027C74.0581 60.253 74.2686 60.2032 74.4855 60.152C74.7036 60.0793 74.9217 60.0066 75.1465 59.9316C75.2077 59.7479 75.2689 59.5643 75.332 59.375C75.946 58.9111 76.4474 58.6259 77.1875 58.4473C77.377 58.2657 77.5624 58.0799 77.7441 57.8906C78.15 57.6703 78.15 57.6703 78.4863 57.5195C78.4863 57.3971 78.4863 57.2746 78.4863 57.1484C78.7313 57.0872 78.9762 57.026 79.2285 56.9629C79.2285 56.8404 79.2285 56.718 79.2285 56.5918C79.4734 56.5306 79.7184 56.4693 79.9707 56.4062C79.9707 56.2838 79.9707 56.1613 79.9707 56.0352C80.0893 56.016 80.208 55.9969 80.3302 55.9772C80.5196 55.914 80.5196 55.914 80.7129 55.8496C80.7741 55.6659 80.8354 55.4822 80.8984 55.293C81.0132 55.2662 81.1281 55.2394 81.2463 55.2118C81.7753 55.0718 81.8815 54.7995 82.1973 54.3652C82.3723 54.2816 82.3723 54.2816 82.551 54.1964C82.9901 53.9678 83.1936 53.7327 83.4961 53.3447C83.9732 52.7327 83.9732 52.7327 84.3869 52.538C85.0097 52.2117 85.4525 51.7202 85.943 51.2225C86.0443 51.1227 86.1456 51.0228 86.2499 50.9199C86.701 50.4666 87.0021 50.1557 87.207 49.541C87.5088 49.2245 87.8175 48.9143 88.1348 48.6133C87.9173 48.351 87.6996 48.0889 87.481 47.8276C87.3053 47.6176 87.1304 47.4069 86.9563 47.1956C85.6238 45.4764 85.6238 45.4764 83.8672 44.3457C83.5666 44.0263 83.3034 43.6871 83.0322 43.3426C82.7511 42.9971 82.7511 42.9971 82.1973 42.8613C81.8842 42.5559 81.5748 42.2467 81.2695 41.9336C81.1471 41.8724 81.0246 41.8111 80.8984 41.748C80.651 41.5007 80.4036 41.2533 80.1562 41.0059C80.0338 40.9446 79.9113 40.8834 79.7852 40.8203C79.5996 40.6348 79.4141 40.4492 79.2285 40.2637C79.1061 40.2024 78.9836 40.1412 78.8574 40.0781C78.6719 39.8926 78.4863 39.707 78.3008 39.5215C78.1783 39.4603 78.0559 39.399 77.9297 39.3359C77.7441 39.1504 77.5586 38.9648 77.373 38.7793C76.8418 38.3643 76.3078 37.9683 75.7031 37.666C75.5845 37.5436 75.4659 37.4211 75.3436 37.2949C74.975 36.8838 74.975 36.8838 74.4043 36.7383C74.2206 36.5546 74.2206 36.5546 74.0332 36.3672C73.7961 36.1783 73.5561 35.9931 73.3142 35.8105C73.1884 35.7149 73.0626 35.6192 72.933 35.5206C72.4527 35.1872 71.9546 34.9501 71.424 34.7089C71.0645 34.5117 71.0645 34.5117 70.7977 34.2218C70.5193 33.9176 70.5193 33.9176 70.0809 33.8797C69.5167 33.7556 69.1731 33.55 68.6987 33.2245C68.5543 33.1271 68.4098 33.0298 68.261 32.9295C67.9102 32.6562 67.9102 32.6562 67.7246 32.2852C67.5653 32.2605 67.406 32.2359 67.2419 32.2105C66.4996 32.08 65.9022 31.7861 65.2429 31.4386C65.124 31.3775 65.0052 31.3164 64.8827 31.2534C64.5923 31.1039 64.3029 30.9525 64.0137 30.8008ZM32.146 32.2736C31.6398 32.5372 31.3182 32.6622 30.7428 32.749C30.1111 32.8666 30.05 33.0796 29.6875 33.584C29.3786 33.6474 29.0693 33.7091 28.7598 33.7695C28.5081 34.0125 28.2615 34.2609 28.0176 34.5117C26.7961 35.3956 26.7961 35.3956 26.0896 35.5134C25.4504 35.6608 25.0523 35.9667 24.527 36.3556C24.3459 36.4874 24.1649 36.6192 23.9783 36.755C23.7735 36.9304 23.7735 36.9304 23.5645 37.1094C23.5645 37.2318 23.5645 37.3543 23.5645 37.4805C23.4343 37.5264 23.3042 37.5723 23.1702 37.6196C22.3881 37.9597 21.733 38.3842 21.1292 38.988C20.7827 39.3345 20.4861 39.5154 20.0391 39.707C20.0391 39.8295 20.0391 39.952 20.0391 40.0781C19.8611 40.1068 19.8611 40.1068 19.6796 40.1361C19.5533 40.1782 19.427 40.2203 19.2969 40.2637C19.2356 40.4474 19.1744 40.6311 19.1113 40.8203C18.9927 40.8471 18.8741 40.8739 18.7518 40.9015C18.6255 40.9359 18.4993 40.9704 18.3691 41.0059C18.2773 41.1896 18.2773 41.1896 18.1836 41.377C18.0917 41.5606 18.0917 41.5606 17.998 41.748C17.8794 41.7748 17.7608 41.8016 17.6385 41.8292C17.2029 41.9006 17.2029 41.9006 16.9775 42.3975C16.6992 42.8613 16.6992 42.8613 16.3397 42.9541C16.1503 43 16.1503 43 15.957 43.0469C15.5839 43.4627 15.2792 43.8458 15.0293 44.3457C14.8577 44.3874 14.8577 44.3874 14.6826 44.43C14.2208 44.5482 14.0459 44.7029 13.7119 45.0374C13.6048 45.1433 13.4977 45.2493 13.3874 45.3584C13.2741 45.4734 13.1608 45.5884 13.0441 45.7069C12.9261 45.8247 12.8082 45.9426 12.6867 46.064C12.4379 46.3132 12.1898 46.5631 11.9424 46.8136C11.563 47.1974 11.1812 47.5786 10.799 47.9595C10.5577 48.2019 10.3164 48.4445 10.0753 48.6872C9.96093 48.8015 9.84651 48.9157 9.72863 49.0334C9.62331 49.1405 9.51799 49.2476 9.40948 49.3579C9.31654 49.4517 9.2236 49.5455 9.12785 49.6421C8.86261 49.9325 8.86261 49.9325 8.7207 50.4688C8.41846 50.7666 8.41846 50.7666 8.05969 51.0602C7.94082 51.1585 7.82195 51.2568 7.69947 51.3581C7.60786 51.432 7.51626 51.5059 7.42188 51.582C7.77049 51.9827 7.77049 51.9827 8.26843 52.1271C8.41768 52.1921 8.56693 52.2572 8.7207 52.3242C8.78193 52.5079 8.84316 52.6916 8.90625 52.8809C9.33888 53.0057 9.77186 53.1292 10.2051 53.252C11.0586 53.8457 11.0586 53.8457 11.3184 54.3652C11.5193 54.3997 11.5193 54.3997 11.7242 54.4348C12.3903 54.5828 12.8171 54.8862 13.3594 55.293C13.4206 55.4154 13.4818 55.5379 13.5449 55.6641C13.6942 55.6909 13.8434 55.7176 13.9972 55.7452C14.4727 55.8496 14.4727 55.8496 14.8438 56.4062C15.0906 56.435 15.0906 56.435 15.3424 56.4642C15.9901 56.5987 16.1237 56.7015 16.5833 57.1368C17.1352 57.6455 17.5582 57.8198 18.3075 57.9588C19.25 58.2145 20.1075 58.734 20.9668 59.1895C20.9668 59.3119 20.9668 59.4344 20.9668 59.5605C21.3178 59.7436 21.6698 59.925 22.0221 60.1056C22.218 60.2068 22.4139 60.3079 22.6157 60.4122C23.1654 60.6884 23.1654 60.6884 23.684 60.7673C24.206 60.8773 24.442 61.0929 24.8633 61.416C25.2985 61.6202 25.7301 61.8125 26.1737 61.9958C26.2896 62.0449 26.4055 62.0939 26.5249 62.1444C27.0185 62.352 27.5094 62.5455 28.0176 62.7148C28.3619 62.8462 28.7056 62.9791 29.049 63.1128C29.3577 63.2324 29.3577 63.2324 29.6726 63.3545C30.1014 63.5209 30.53 63.6876 30.9584 63.8546C33.3202 64.88 33.3202 64.88 35.8105 65.3125C36.0569 64.7839 36.0569 64.7839 35.8363 64.405C35.7515 64.2737 35.6667 64.1424 35.5793 64.0071C35.4858 63.8587 35.3924 63.7103 35.296 63.5574C35.1941 63.398 35.0922 63.2386 34.9872 63.0743C30.5131 55.8328 29.147 47.0549 31.0052 38.746C31.411 37.0729 31.9593 35.4639 32.5946 33.8652C32.8397 33.2184 33.0325 32.581 33.2129 31.9141C32.7563 31.9141 32.5455 32.056 32.146 32.2736ZM46.9434 41.9336C46.9434 42.0561 46.9434 42.1785 46.9434 42.3047C46.8042 42.3219 46.665 42.3391 46.5215 42.3569C45.6461 42.5876 45.2131 43.2491 44.7168 43.9746C44.0193 45.3843 43.9854 46.6903 44.4501 48.1726C44.8763 49.2725 45.5219 49.9435 46.5723 50.4688C46.6335 50.5912 46.6947 50.7137 46.7578 50.8398C47.7513 51.3104 48.8335 51.3217 49.9121 51.2109C50.3111 51.0419 50.3111 51.0419 50.6543 50.8398C50.8112 50.7901 50.9681 50.7403 51.1298 50.6891C51.6992 50.4117 51.86 50.0983 52.1387 49.541C52.3224 49.6329 52.3224 49.6329 52.5098 49.7266C52.6616 49.4643 52.8121 49.2013 52.962 48.938C53.046 48.7916 53.1299 48.6452 53.2164 48.4944C53.7715 47.3952 53.7951 46.1566 53.5027 44.9712C53.1084 43.8673 52.5546 42.9838 51.582 42.3047C50.9838 42.1425 50.9838 42.1425 50.4688 42.1191C50.3769 41.9354 50.3769 41.9354 50.2832 41.748C49.1664 41.3185 48.034 41.5775 46.9434 41.9336ZM11.875 42.3047C12.0605 42.6758 12.0605 42.6758 12.0605 42.6758L11.875 42.3047ZM36.1816 65.127C36.3672 65.498 36.3672 65.498 36.3672 65.498L36.1816 65.127ZM61.0449 66.2402C61.2305 66.6113 61.2305 66.6113 61.2305 66.6113L61.0449 66.2402Z" fill="var(--fill-0, #52480A)"/>
<path id="Vector_2" d="M12.6172 41.377C12.7396 41.4382 12.8621 41.4994 12.9883 41.5625C12.6209 42.1136 12.6209 42.1136 12.2461 42.6758C12.1236 42.4921 12.0012 42.3084 11.875 42.1191C12.1199 41.8742 12.3648 41.6293 12.6172 41.377ZM11.6895 42.3047C11.8119 42.4884 11.9344 42.6721 12.0605 42.8613C11.785 43.045 11.785 43.045 11.5039 43.2324C11.4427 43.0487 11.3814 42.865 11.3184 42.6758C11.4408 42.5533 11.5633 42.4309 11.6895 42.3047Z" fill="var(--fill-0, #52480A)"/>
<path id="Vector_3" d="M67.7246 44.7168C67.7858 44.7168 67.8471 44.7168 67.9102 44.7168C67.9102 46.0026 67.9102 47.2885 67.9102 48.6133C67.8489 48.6133 67.7877 48.6133 67.7246 48.6133C67.7246 47.3274 67.7246 46.0416 67.7246 44.7168Z" fill="var(--fill-0, #52480A)"/>
<path id="Vector_4" d="M29.6875 44.5312C29.7487 44.5312 29.81 44.5312 29.873 44.5312C29.873 45.5722 29.873 46.6131 29.873 47.6855C29.8118 47.6855 29.7506 47.6855 29.6875 47.6855C29.6875 46.6446 29.6875 45.6037 29.6875 44.5312Z" fill="var(--fill-0, #52480A)"/>
<path id="Vector_5" d="M51.582 70.1367C52.4393 70.1367 53.2965 70.1367 54.1797 70.1367C54.1797 70.1979 54.1797 70.2592 54.1797 70.3223C53.3225 70.3223 52.4652 70.3223 51.582 70.3223C51.582 70.261 51.582 70.1998 51.582 70.1367Z" fill="var(--fill-0, #52480A)"/>
<path id="Vector_6" d="M47.8711 50.8398C48.5446 50.8398 49.2182 50.8398 49.9121 50.8398C49.9121 50.9011 49.9121 50.9623 49.9121 51.0254C49.2386 51.0254 48.565 51.0254 47.8711 51.0254C47.8711 50.9642 47.8711 50.9029 47.8711 50.8398Z" fill="var(--fill-0, #52480A)"/>
<path id="Vector_7" d="M53.252 45.459C53.3132 45.459 53.3744 45.459 53.4375 45.459C53.4375 46.0713 53.4375 46.6836 53.4375 47.3145C53.3763 47.3145 53.315 47.3145 53.252 47.3145C53.252 46.7021 53.252 46.0898 53.252 45.459Z" fill="var(--fill-0, #52480A)"/>
<path id="Vector_8" d="M43.6035 69.9512C44.0934 69.9512 44.5832 69.9512 45.0879 69.9512C45.0267 70.0736 44.9654 70.1961 44.9023 70.3223C44.4737 70.261 44.0451 70.1998 43.6035 70.1367C43.6035 70.0755 43.6035 70.0143 43.6035 69.9512Z" fill="var(--fill-0, #52480A)"/>
<path id="Vector_9" d="M29.873 48.2422C29.9343 48.2422 29.9955 48.2422 30.0586 48.2422C30.0586 48.7933 30.0586 49.3443 30.0586 49.9121C29.9974 49.9121 29.9361 49.9121 29.873 49.9121C29.873 49.361 29.873 48.81 29.873 48.2422Z" fill="var(--fill-0, #52480A)"/>
<path id="Vector_10" d="M67.5391 42.4902C67.6003 42.4902 67.6615 42.4902 67.7246 42.4902C67.7246 43.0413 67.7246 43.5924 67.7246 44.1602C67.6634 44.1602 67.6021 44.1602 67.5391 44.1602C67.5391 43.6091 67.5391 43.058 67.5391 42.4902Z" fill="var(--fill-0, #52480A)"/>
<path id="Vector_11" d="M29.873 42.1191C29.9343 42.1191 29.9955 42.1191 30.0586 42.1191C30.0586 42.6702 30.0586 43.2213 30.0586 43.7891C29.9974 43.7891 29.9361 43.7891 29.873 43.7891C29.873 43.238 29.873 42.6869 29.873 42.1191Z" fill="var(--fill-0, #52480A)"/>
<path id="Vector_12" d="M54.5508 69.9512C55.0406 69.9512 55.5305 69.9512 56.0352 69.9512C56.0352 70.0124 56.0352 70.0736 56.0352 70.1367C55.5453 70.1367 55.0555 70.1367 54.5508 70.1367C54.5508 70.0755 54.5508 70.0143 54.5508 69.9512Z" fill="var(--fill-0, #52480A)"/>
<path id="Vector_13" d="M67.5391 49.1699C67.6003 49.1699 67.6615 49.1699 67.7246 49.1699C67.7246 49.6598 67.7246 50.1496 67.7246 50.6543C67.6634 50.6543 67.6021 50.6543 67.5391 50.6543C67.5391 50.1645 67.5391 49.6746 67.5391 49.1699Z" fill="var(--fill-0, #52480A)"/>
<path id="Vector_14" d="M44.3457 45.8301C44.4069 45.8301 44.4682 45.8301 44.5312 45.8301C44.5312 46.2587 44.5312 46.6873 44.5312 47.1289C44.47 47.1289 44.4088 47.1289 44.3457 47.1289C44.3457 46.7003 44.3457 46.2717 44.3457 45.8301Z" fill="var(--fill-0, #52480A)"/>
<path id="Vector_15" d="M48.2422 41.748C48.6708 41.748 49.0994 41.748 49.541 41.748C49.541 41.8093 49.541 41.8705 49.541 41.9336C49.1124 41.9336 48.6838 41.9336 48.2422 41.9336C48.2422 41.8724 48.2422 41.8111 48.2422 41.748Z" fill="var(--fill-0, #52480A)"/>
<path id="Vector_16" d="M53.0664 25.0488C53.495 25.0488 53.9236 25.0488 54.3652 25.0488C54.3652 25.1101 54.3652 25.1713 54.3652 25.2344C53.9366 25.2344 53.508 25.2344 53.0664 25.2344C53.0664 25.1731 53.0664 25.1119 53.0664 25.0488Z" fill="var(--fill-0, #52480A)"/>
<path id="Vector_17" d="M43.6035 25.0488C44.0321 25.0488 44.4607 25.0488 44.9023 25.0488C44.9023 25.1101 44.9023 25.1713 44.9023 25.2344C44.4737 25.2344 44.0451 25.2344 43.6035 25.2344C43.6035 25.1731 43.6035 25.1119 43.6035 25.0488Z" fill="var(--fill-0, #52480A)"/>
<path id="Vector_18" d="M65.498 21.3379C65.9267 21.3379 66.3553 21.3379 66.7969 21.3379C66.7969 21.3991 66.7969 21.4604 66.7969 21.5234C66.3683 21.5234 65.9396 21.5234 65.498 21.5234C65.498 21.4622 65.498 21.401 65.498 21.3379Z" fill="var(--fill-0, #52480A)"/>
<path id="Vector_19" d="M24.3066 21.3379C24.7353 21.3379 25.1639 21.3379 25.6055 21.3379C25.6055 21.3991 25.6055 21.4604 25.6055 21.5234C25.1769 21.5234 24.7482 21.5234 24.3066 21.5234C24.3066 21.4622 24.3066 21.401 24.3066 21.3379Z" fill="var(--fill-0, #52480A)"/>
<path id="Vector_20" d="M65.6836 73.4766C66.051 73.4766 66.4184 73.4766 66.7969 73.4766C66.7969 73.5378 66.7969 73.599 66.7969 73.6621C66.4295 73.6621 66.0621 73.6621 65.6836 73.6621C65.6836 73.6009 65.6836 73.5396 65.6836 73.4766Z" fill="var(--fill-0, #52480A)"/>
<path id="Vector_21" d="M24.4922 73.4766C24.8596 73.4766 25.227 73.4766 25.6055 73.4766C25.6055 73.5378 25.6055 73.599 25.6055 73.6621C25.2381 73.6621 24.8707 73.6621 24.4922 73.6621C24.4922 73.6009 24.4922 73.5396 24.4922 73.4766Z" fill="var(--fill-0, #52480A)"/>
<path id="Vector_22" d="M56.2207 69.7656C56.5881 69.7656 56.9555 69.7656 57.334 69.7656C57.334 69.8269 57.334 69.8881 57.334 69.9512C56.9666 69.9512 56.5992 69.9512 56.2207 69.9512C56.2207 69.8899 56.2207 69.8287 56.2207 69.7656Z" fill="var(--fill-0, #52480A)"/>
<path id="Vector_23" d="M42.1191 69.7656C42.4865 69.7656 42.8539 69.7656 43.2324 69.7656C43.2324 69.8269 43.2324 69.8881 43.2324 69.9512C42.865 69.9512 42.4977 69.9512 42.1191 69.9512C42.1191 69.8899 42.1191 69.8287 42.1191 69.7656Z" fill="var(--fill-0, #52480A)"/>
<path id="Vector_24" d="M67.3535 50.8398C67.4147 50.8398 67.476 50.8398 67.5391 50.8398C67.5391 51.2072 67.5391 51.5746 67.5391 51.9531C67.4778 51.9531 67.4166 51.9531 67.3535 51.9531C67.3535 51.5857 67.3535 51.2184 67.3535 50.8398Z" fill="var(--fill-0, #52480A)"/>
<path id="Vector_25" d="M30.0586 50.0977C30.1198 50.0977 30.1811 50.0977 30.2441 50.0977C30.2441 50.465 30.2441 50.8324 30.2441 51.2109C30.1829 51.2109 30.1217 51.2109 30.0586 51.2109C30.0586 50.8436 30.0586 50.4762 30.0586 50.0977Z" fill="var(--fill-0, #52480A)"/>
<path id="Vector_26" d="M11.1328 42.8613C11.1328 43.045 11.1328 43.2287 11.1328 43.418C10.9491 43.5098 10.9491 43.5098 10.7617 43.6035C10.8842 43.3586 11.0066 43.1137 11.1328 42.8613Z" fill="var(--fill-0, #52480A)"/>
<path id="Vector_27" d="M67.3535 41.1914C67.4147 41.1914 67.476 41.1914 67.5391 41.1914C67.5391 41.5588 67.5391 41.9262 67.5391 42.3047C67.4778 42.3047 67.4166 42.3047 67.3535 42.3047C67.3535 41.9373 67.3535 41.5699 67.3535 41.1914Z" fill="var(--fill-0, #52480A)"/>
<path id="Vector_28" d="M30.0586 40.8203C30.1198 40.8203 30.1811 40.8203 30.2441 40.8203C30.2441 41.1877 30.2441 41.5551 30.2441 41.9336C30.1829 41.9336 30.1217 41.9336 30.0586 41.9336C30.0586 41.5662 30.0586 41.1988 30.0586 40.8203Z" fill="var(--fill-0, #52480A)"/>
<path id="Vector_29" d="M54.5508 25.2344C54.9182 25.2344 55.2855 25.2344 55.6641 25.2344C55.6641 25.2956 55.6641 25.3568 55.6641 25.4199C55.2967 25.4199 54.9293 25.4199 54.5508 25.4199C54.5508 25.3587 54.5508 25.2975 54.5508 25.2344Z" fill="var(--fill-0, #52480A)"/>
<path id="Vector_30" d="M51.582 24.8633C51.9494 24.8633 52.3168 24.8633 52.6953 24.8633C52.6953 24.9245 52.6953 24.9857 52.6953 25.0488C52.3279 25.0488 51.9605 25.0488 51.582 25.0488C51.582 24.9876 51.582 24.9264 51.582 24.8633Z" fill="var(--fill-0, #52480A)"/>
<path id="Vector_31" d="M68.4668 70.6934C68.528 70.6934 68.5893 70.6934 68.6523 70.6934C68.6523 70.9995 68.6523 71.3057 68.6523 71.6211C68.5911 71.6211 68.5299 71.6211 68.4668 71.6211C68.4668 71.3149 68.4668 71.0088 68.4668 70.6934Z" fill="var(--fill-0, #52480A)"/>
<path id="Vector_32" d="M22.4512 70.6934C22.5124 70.6934 22.5736 70.6934 22.6367 70.6934C22.6367 70.9995 22.6367 71.3057 22.6367 71.6211C22.5755 71.6211 22.5143 71.6211 22.4512 71.6211C22.4512 71.3149 22.4512 71.0088 22.4512 70.6934Z" fill="var(--fill-0, #52480A)"/>
<path id="Vector_33" d="M49.9121 70.3223C50.2183 70.3223 50.5244 70.3223 50.8398 70.3223C50.8398 70.3835 50.8398 70.4447 50.8398 70.5078C50.5337 70.5078 50.2275 70.5078 49.9121 70.5078C49.9121 70.4466 49.9121 70.3854 49.9121 70.3223Z" fill="var(--fill-0, #52480A)"/>
<path id="Vector_34" d="M57.5195 69.5801C57.8257 69.5801 58.1318 69.5801 58.4473 69.5801C58.4473 69.6413 58.4473 69.7025 58.4473 69.7656C58.1411 69.7656 57.835 69.7656 57.5195 69.7656C57.5195 69.7044 57.5195 69.6432 57.5195 69.5801Z" fill="var(--fill-0, #52480A)"/>
<path id="Vector_35" d="M41.0059 69.5801C41.312 69.5801 41.6182 69.5801 41.9336 69.5801C41.9336 69.6413 41.9336 69.7025 41.9336 69.7656C41.6274 69.7656 41.3213 69.7656 41.0059 69.7656C41.0059 69.7044 41.0059 69.6432 41.0059 69.5801Z" fill="var(--fill-0, #52480A)"/>
<path id="Vector_36" d="M58.6328 69.3945C58.939 69.3945 59.2451 69.3945 59.5605 69.3945C59.5605 69.4558 59.5605 69.517 59.5605 69.5801C59.2544 69.5801 58.9482 69.5801 58.6328 69.5801C58.6328 69.5188 58.6328 69.4576 58.6328 69.3945Z" fill="var(--fill-0, #52480A)"/>
<path id="Vector_37" d="M38.7793 69.209C39.0854 69.209 39.3916 69.209 39.707 69.209C39.707 69.2702 39.707 69.3314 39.707 69.3945C39.4009 69.3945 39.0947 69.3945 38.7793 69.3945C38.7793 69.3333 38.7793 69.2721 38.7793 69.209Z" fill="var(--fill-0, #52480A)"/>
<path id="Vector_38" d="M67.168 40.0781C67.2292 40.0781 67.2904 40.0781 67.3535 40.0781C67.3535 40.3843 67.3535 40.6904 67.3535 41.0059C67.2923 41.0059 67.2311 41.0059 67.168 41.0059C67.168 40.6997 67.168 40.3936 67.168 40.0781Z" fill="var(--fill-0, #52480A)"/>
<path id="Vector_39" d="M56.7773 25.6055C57.0835 25.6055 57.3896 25.6055 57.7051 25.6055C57.7051 25.6667 57.7051 25.7279 57.7051 25.791C57.3989 25.791 57.0928 25.791 56.7773 25.791C56.7773 25.7298 56.7773 25.6686 56.7773 25.6055Z" fill="var(--fill-0, #52480A)"/>
<path id="Vector_40" d="M55.8496 25.4199C56.1558 25.4199 56.4619 25.4199 56.7773 25.4199C56.7773 25.4812 56.7773 25.5424 56.7773 25.6055C56.4712 25.6055 56.165 25.6055 55.8496 25.6055C55.8496 25.5442 55.8496 25.483 55.8496 25.4199Z" fill="var(--fill-0, #52480A)"/>
<path id="Vector_41" d="M42.4902 25.2344C42.7964 25.2344 43.1025 25.2344 43.418 25.2344C43.418 25.2956 43.418 25.3568 43.418 25.4199C43.1118 25.4199 42.8057 25.4199 42.4902 25.4199C42.4902 25.3587 42.4902 25.2975 42.4902 25.2344Z" fill="var(--fill-0, #52480A)"/>
<path id="Vector_42" d="M68.4668 23.3789C68.528 23.3789 68.5893 23.3789 68.6523 23.3789C68.6523 23.6851 68.6523 23.9912 68.6523 24.3066C68.5911 24.3066 68.5299 24.3066 68.4668 24.3066C68.4668 24.0005 68.4668 23.6943 68.4668 23.3789Z" fill="var(--fill-0, #52480A)"/>
<path id="Vector_43" d="M22.4512 23.3789C22.5124 23.3789 22.5736 23.3789 22.6367 23.3789C22.6367 23.6851 22.6367 23.9912 22.6367 24.3066C22.5755 24.3066 22.5143 24.3066 22.4512 24.3066C22.4512 24.0005 22.4512 23.6943 22.4512 23.3789Z" fill="var(--fill-0, #52480A)"/>
<path id="Vector_44" d="M47.1289 78.4863C47.8711 78.6719 47.8711 78.6719 47.8711 78.6719L47.1289 78.4863Z" fill="var(--fill-0, #52480A)"/>
<path id="Vector_45" d="M49.7266 76.2598C49.9121 77.002 49.9121 77.002 49.9121 77.002L49.7266 76.2598Z" fill="var(--fill-0, #52480A)"/>
<path id="Vector_46" d="M45.0879 76.2598C45.2734 77.002 45.2734 77.002 45.2734 77.002L45.0879 76.2598Z" fill="var(--fill-0, #52480A)"/>
<path id="Vector_47" d="M39.8926 69.3945C40.6348 69.5801 40.6348 69.5801 40.6348 69.5801L39.8926 69.3945Z" fill="var(--fill-0, #52480A)"/>
<path id="Vector_48" d="M38.0371 69.0234C38.7793 69.209 38.7793 69.209 38.7793 69.209L38.0371 69.0234Z" fill="var(--fill-0, #52480A)"/>
<path id="Vector_49" d="M37.1094 68.8379C37.8516 69.0234 37.8516 69.0234 37.8516 69.0234L37.1094 68.8379Z" fill="var(--fill-0, #52480A)"/>
<path id="Vector_50" d="M66.9824 53.252C67.168 53.9941 67.168 53.9941 67.168 53.9941L66.9824 53.252Z" fill="var(--fill-0, #52480A)"/>
<path id="Vector_51" d="M30.4297 52.5098C30.6152 53.252 30.6152 53.252 30.6152 53.252L30.4297 52.5098Z" fill="var(--fill-0, #52480A)"/>
<path id="Vector_52" d="M67.168 52.3242C67.3535 53.0664 67.3535 53.0664 67.3535 53.0664L67.168 52.3242Z" fill="var(--fill-0, #52480A)"/>
<path id="Vector_53" d="M30.2441 51.582C30.4297 52.3242 30.4297 52.3242 30.4297 52.3242L30.2441 51.582Z" fill="var(--fill-0, #52480A)"/>
<path id="Vector_54" d="M44.5312 44.9023C44.7168 45.6445 44.7168 45.6445 44.7168 45.6445L44.5312 44.9023Z" fill="var(--fill-0, #52480A)"/>
<path id="Vector_55" d="M30.2441 39.8926C30.4297 40.6348 30.4297 40.6348 30.4297 40.6348L30.2441 39.8926Z" fill="var(--fill-0, #52480A)"/>
<path id="Vector_56" d="M66.9824 39.3359C67.168 40.0781 67.168 40.0781 67.168 40.0781L66.9824 39.3359Z" fill="var(--fill-0, #52480A)"/>
<path id="Vector_57" d="M30.4297 38.9648C30.6152 39.707 30.6152 39.707 30.6152 39.707L30.4297 38.9648Z" fill="var(--fill-0, #52480A)"/>
<path id="Vector_58" d="M66.7969 38.4082C66.9824 39.1504 66.9824 39.1504 66.9824 39.1504L66.7969 38.4082Z" fill="var(--fill-0, #52480A)"/>
<path id="Vector_59" d="M38.7793 25.9766C39.5215 26.1621 39.5215 26.1621 39.5215 26.1621L38.7793 25.9766Z" fill="var(--fill-0, #52480A)"/>
<path id="Vector_60" d="M57.7051 25.791C58.4473 25.9766 58.4473 25.9766 58.4473 25.9766L57.7051 25.791Z" fill="var(--fill-0, #52480A)"/>
<path id="Vector_61" d="M40.4492 25.6055C41.1914 25.791 41.1914 25.791 41.1914 25.791L40.4492 25.6055Z" fill="var(--fill-0, #52480A)"/>
<path id="Vector_62" d="M41.377 25.4199C42.1191 25.6055 42.1191 25.6055 42.1191 25.6055L41.377 25.4199Z" fill="var(--fill-0, #52480A)"/>
<path id="Vector_63" d="M49.7266 17.998C49.9121 18.7402 49.9121 18.7402 49.9121 18.7402L49.7266 17.998Z" fill="var(--fill-0, #52480A)"/>
<path id="Vector_64" d="M45.0879 17.998C45.2734 18.7402 45.2734 18.7402 45.2734 18.7402L45.0879 17.998Z" fill="var(--fill-0, #52480A)"/>
<path id="Vector_65" d="M47.1289 16.3281C47.8711 16.5137 47.8711 16.5137 47.8711 16.5137L47.1289 16.3281Z" fill="var(--fill-0, #52480A)"/>
<path id="Vector_66" d="M59.7461 69.209C60.3027 69.3945 60.3027 69.3945 60.3027 69.3945L59.7461 69.209Z" fill="var(--fill-0, #52480A)"/>
<path id="Vector_67" d="M36.3672 68.6523C36.9238 68.8379 36.9238 68.8379 36.9238 68.8379L36.3672 68.6523Z" fill="var(--fill-0, #52480A)"/>
<path id="Vector_68" d="M35.625 68.4668C36.1816 68.6523 36.1816 68.6523 36.1816 68.6523L35.625 68.4668Z" fill="var(--fill-0, #52480A)"/>
<path id="Vector_69" d="M34.8828 68.2812C35.4395 68.4668 35.4395 68.4668 35.4395 68.4668L34.8828 68.2812Z" fill="var(--fill-0, #52480A)"/>
<path id="Vector_70" d="M34.1406 68.0957C34.6973 68.2812 34.6973 68.2812 34.6973 68.2812L34.1406 68.0957Z" fill="var(--fill-0, #52480A)"/>
<path id="Vector_71" d="M32.8418 67.7246C33.3984 67.9102 33.3984 67.9102 33.3984 67.9102L32.8418 67.7246Z" fill="var(--fill-0, #52480A)"/>
<path id="Vector_72" d="M32.2852 67.5391C32.8418 67.7246 32.8418 67.7246 32.8418 67.7246L32.2852 67.5391Z" fill="var(--fill-0, #52480A)"/>
<path id="Vector_73" d="M66.7969 67.168C67.3535 67.3535 67.3535 67.3535 67.3535 67.3535L66.7969 67.168Z" fill="var(--fill-0, #52480A)"/>
<path id="Vector_74" d="M61.6016 65.8691C61.6628 65.9916 61.724 66.1141 61.7871 66.2402C61.6646 66.179 61.5422 66.1178 61.416 66.0547C61.4772 65.9935 61.5385 65.9322 61.6016 65.8691Z" fill="var(--fill-0, #52480A)"/>
<path id="Vector_75" d="M62.3438 65.6836C62.9004 65.8691 62.9004 65.8691 62.9004 65.8691L62.3438 65.6836Z" fill="var(--fill-0, #52480A)"/>
<path id="Vector_76" d="M63.8281 65.127C64.3848 65.3125 64.3848 65.3125 64.3848 65.3125L63.8281 65.127Z" fill="var(--fill-0, #52480A)"/>
<path id="Vector_77" d="M35.0684 64.9414C35.625 65.127 35.625 65.127 35.625 65.127L35.0684 64.9414Z" fill="var(--fill-0, #52480A)"/>
<path id="Vector_78" d="M34.5117 64.7559C35.0684 64.9414 35.0684 64.9414 35.0684 64.9414L34.5117 64.7559Z" fill="var(--fill-0, #52480A)"/>
<path id="Vector_79" d="M33.9551 64.5703C34.5117 64.7559 34.5117 64.7559 34.5117 64.7559L33.9551 64.5703Z" fill="var(--fill-0, #52480A)"/>
<path id="Vector_80" d="M33.3984 64.3848C33.9551 64.5703 33.9551 64.5703 33.9551 64.5703L33.3984 64.3848Z" fill="var(--fill-0, #52480A)"/>
<path id="Vector_81" d="M32.8418 64.1992C33.3984 64.3848 33.3984 64.3848 33.3984 64.3848L32.8418 64.1992Z" fill="var(--fill-0, #52480A)"/>
<path id="Vector_82" d="M32.2852 64.0137C32.8418 64.1992 32.8418 64.1992 32.8418 64.1992L32.2852 64.0137Z" fill="var(--fill-0, #52480A)"/>
<path id="Vector_83" d="M30.2441 63.2715C30.8008 63.457 30.8008 63.457 30.8008 63.457L30.2441 63.2715Z" fill="var(--fill-0, #52480A)"/>
<path id="Vector_84" d="M26.5332 61.7871C27.0898 61.9727 27.0898 61.9727 27.0898 61.9727L26.5332 61.7871Z" fill="var(--fill-0, #52480A)"/>
<path id="Vector_85" d="M47.5 41.9336C48.0566 42.1191 48.0566 42.1191 48.0566 42.1191L47.5 41.9336Z" fill="var(--fill-0, #52480A)"/>
<path id="Vector_86" d="M35.0684 27.0898C35.625 27.2754 35.625 27.2754 35.625 27.2754L35.0684 27.0898Z" fill="var(--fill-0, #52480A)"/>
<path id="Vector_87" d="M35.625 26.9043C36.1816 27.0898 36.1816 27.0898 36.1816 27.0898L35.625 26.9043Z" fill="var(--fill-0, #52480A)"/>
<path id="Vector_88" d="M36.1816 26.7188C36.7383 26.9043 36.7383 26.9043 36.7383 26.9043L36.1816 26.7188Z" fill="var(--fill-0, #52480A)"/>
<path id="Vector_89" d="M59.9316 26.3477C60.4883 26.5332 60.4883 26.5332 60.4883 26.5332L59.9316 26.3477Z" fill="var(--fill-0, #52480A)"/>
<path id="Vector_90" d="M37.4805 26.3477C38.0371 26.5332 38.0371 26.5332 38.0371 26.5332L37.4805 26.3477Z" fill="var(--fill-0, #52480A)"/>
<path id="Vector_91" d="M59.375 26.1621C59.9316 26.3477 59.9316 26.3477 59.9316 26.3477L59.375 26.1621Z" fill="var(--fill-0, #52480A)"/>
<path id="Vector_92" d="M38.2227 26.1621C38.7793 26.3477 38.7793 26.3477 38.7793 26.3477L38.2227 26.1621Z" fill="var(--fill-0, #52480A)"/>
<path id="Vector_93" d="M58.6328 25.9766C59.1895 26.1621 59.1895 26.1621 59.1895 26.1621L58.6328 25.9766Z" fill="var(--fill-0, #52480A)"/>
<path id="Vector_94" d="M39.707 25.791C40.2637 25.9766 40.2637 25.9766 40.2637 25.9766L39.707 25.791Z" fill="var(--fill-0, #52480A)"/>
<path id="Vector_95" d="M48.0566 78.3008C48.4277 78.4863 48.4277 78.4863 48.4277 78.4863L48.0566 78.3008Z" fill="var(--fill-0, #52480A)"/>
<path id="Vector_96" d="M46.5723 78.3008C46.9434 78.4863 46.9434 78.4863 46.9434 78.4863L46.5723 78.3008Z" fill="var(--fill-0, #52480A)"/>
<path id="Vector_97" d="M66.7969 73.291C67.168 73.4766 67.168 73.4766 67.168 73.4766L66.7969 73.291Z" fill="var(--fill-0, #52480A)"/>
<path id="Vector_98" d="M65.127 73.291C65.498 73.4766 65.498 73.4766 65.498 73.4766L65.127 73.291Z" fill="var(--fill-0, #52480A)"/>
<path id="Vector_99" d="M25.6055 73.291C25.9766 73.4766 25.9766 73.4766 25.9766 73.4766L25.6055 73.291Z" fill="var(--fill-0, #52480A)"/>
<path id="Vector_100" d="M23.9355 73.291C24.3066 73.4766 24.3066 73.4766 24.3066 73.4766L23.9355 73.291Z" fill="var(--fill-0, #52480A)"/>
<path id="Vector_101" d="M33.584 67.9102C33.9551 68.0957 33.9551 68.0957 33.9551 68.0957L33.584 67.9102Z" fill="var(--fill-0, #52480A)"/>
<path id="Vector_102" d="M66.4258 67.3535C66.7969 67.5391 66.7969 67.5391 66.7969 67.5391L66.4258 67.3535Z" fill="var(--fill-0, #52480A)"/>
<path id="Vector_103" d="M31.7285 67.3535C32.0996 67.5391 32.0996 67.5391 32.0996 67.5391L31.7285 67.3535Z" fill="var(--fill-0, #52480A)"/>
<path id="Vector_104" d="M67.3535 66.9824C67.7246 67.168 67.7246 67.168 67.7246 67.168L67.3535 66.9824Z" fill="var(--fill-0, #52480A)"/>
<path id="Vector_105" d="M67.9102 66.7969C68.2812 66.9824 68.2812 66.9824 68.2812 66.9824L67.9102 66.7969Z" fill="var(--fill-0, #52480A)"/>
<path id="Vector_106" d="M68.2812 66.6113C68.6523 66.7969 68.6523 66.7969 68.6523 66.7969L68.2812 66.6113Z" fill="var(--fill-0, #52480A)"/>
<path id="Vector_107" d="M68.8379 66.4258C69.209 66.6113 69.209 66.6113 69.209 66.6113L68.8379 66.4258Z" fill="var(--fill-0, #52480A)"/>
<path id="Vector_108" d="M69.209 66.2402C69.5801 66.4258 69.5801 66.4258 69.5801 66.4258L69.209 66.2402Z" fill="var(--fill-0, #52480A)"/>
<path id="Vector_109" d="M69.5801 66.0547C69.9512 66.2402 69.9512 66.2402 69.9512 66.2402L69.5801 66.0547Z" fill="var(--fill-0, #52480A)"/>
<path id="Vector_110" d="M61.9727 65.8691C62.3438 66.0547 62.3438 66.0547 62.3438 66.0547L61.9727 65.8691Z" fill="var(--fill-0, #52480A)"/>
<path id="Vector_111" d="M70.5078 65.6836C70.8789 65.8691 70.8789 65.8691 70.8789 65.8691L70.5078 65.6836Z" fill="var(--fill-0, #52480A)"/>
<path id="Vector_112" d="M70.8789 65.498C71.25 65.6836 71.25 65.6836 71.25 65.6836L70.8789 65.498Z" fill="var(--fill-0, #52480A)"/>
<path id="Vector_113" d="M62.9004 65.498C63.2715 65.6836 63.2715 65.6836 63.2715 65.6836L62.9004 65.498Z" fill="var(--fill-0, #52480A)"/>
<path id="Vector_114" d="M71.25 65.3125C71.6211 65.498 71.6211 65.498 71.6211 65.498L71.25 65.3125Z" fill="var(--fill-0, #52480A)"/>
<path id="Vector_115" d="M63.457 65.3125C63.8281 65.498 63.8281 65.498 63.8281 65.498L63.457 65.3125Z" fill="var(--fill-0, #52480A)"/>
<path id="Vector_116" d="M25.9766 65.3125C26.3477 65.498 26.3477 65.498 26.3477 65.498L25.9766 65.3125Z" fill="var(--fill-0, #52480A)"/>
<path id="Vector_117" d="M71.6211 65.127C71.9922 65.3125 71.9922 65.3125 71.9922 65.3125L71.6211 65.127Z" fill="var(--fill-0, #52480A)"/>
<path id="Vector_118" d="M25.6055 65.127C25.9766 65.3125 25.9766 65.3125 25.9766 65.3125L25.6055 65.127Z" fill="var(--fill-0, #52480A)"/>
<path id="Vector_119" d="M71.9922 64.9414C72.3633 65.127 72.3633 65.127 72.3633 65.127L71.9922 64.9414Z" fill="var(--fill-0, #52480A)"/>
<path id="Vector_120" d="M64.3848 64.9414C64.7559 65.127 64.7559 65.127 64.7559 65.127L64.3848 64.9414Z" fill="var(--fill-0, #52480A)"/>
<path id="Vector_121" d="M25.0488 64.9414C25.4199 65.127 25.4199 65.127 25.4199 65.127L25.0488 64.9414Z" fill="var(--fill-0, #52480A)"/>
<path id="Vector_122" d="M72.3633 64.7559C72.7344 64.9414 72.7344 64.9414 72.7344 64.9414L72.3633 64.7559Z" fill="var(--fill-0, #52480A)"/>
<path id="Vector_123" d="M24.6777 64.7559C25.0488 64.9414 25.0488 64.9414 25.0488 64.9414L24.6777 64.7559Z" fill="var(--fill-0, #52480A)"/>
<path id="Vector_124" d="M72.7344 64.5703C73.1055 64.7559 73.1055 64.7559 73.1055 64.7559L72.7344 64.5703Z" fill="var(--fill-0, #52480A)"/>
<path id="Vector_125" d="M65.3125 64.5703C65.6836 64.7559 65.6836 64.7559 65.6836 64.7559L65.3125 64.5703Z" fill="var(--fill-0, #52480A)"/>
<path id="Vector_126" d="M65.6836 64.3848C66.0547 64.5703 66.0547 64.5703 66.0547 64.5703L65.6836 64.3848Z" fill="var(--fill-0, #52480A)"/>
<path id="Vector_127" d="M23.75 64.3848C24.1211 64.5703 24.1211 64.5703 24.1211 64.5703L23.75 64.3848Z" fill="var(--fill-0, #52480A)"/>
<path id="Vector_128" d="M23.3789 64.1992C23.75 64.3848 23.75 64.3848 23.75 64.3848L23.3789 64.1992Z" fill="var(--fill-0, #52480A)"/>
<path id="Vector_129" d="M66.6113 64.0137C66.9824 64.1992 66.9824 64.1992 66.9824 64.1992L66.6113 64.0137Z" fill="var(--fill-0, #52480A)"/>
<path id="Vector_130" d="M23.0078 64.0137C23.3789 64.1992 23.3789 64.1992 23.3789 64.1992L23.0078 64.0137Z" fill="var(--fill-0, #52480A)"/>
<path id="Vector_131" d="M66.9824 63.8281C67.3535 64.0137 67.3535 64.0137 67.3535 64.0137L66.9824 63.8281Z" fill="var(--fill-0, #52480A)"/>
<path id="Vector_132" d="M31.9141 63.8281C32.2852 64.0137 32.2852 64.0137 32.2852 64.0137L31.9141 63.8281Z" fill="var(--fill-0, #52480A)"/>
<path id="Vector_133" d="M74.4043 63.6426C74.7754 63.8281 74.7754 63.8281 74.7754 63.8281L74.4043 63.6426Z" fill="var(--fill-0, #52480A)"/>
<path id="Vector_134" d="M67.3535 63.6426C67.7246 63.8281 67.7246 63.8281 67.7246 63.8281L67.3535 63.6426Z" fill="var(--fill-0, #52480A)"/>
<path id="Vector_135" d="M31.3574 63.6426C31.7285 63.8281 31.7285 63.8281 31.7285 63.8281L31.3574 63.6426Z" fill="var(--fill-0, #52480A)"/>
<path id="Vector_136" d="M22.0801 63.6426C22.4512 63.8281 22.4512 63.8281 22.4512 63.8281L22.0801 63.6426Z" fill="var(--fill-0, #52480A)"/>
<path id="Vector_137" d="M67.7246 63.457C68.0957 63.6426 68.0957 63.6426 68.0957 63.6426L67.7246 63.457Z" fill="var(--fill-0, #52480A)"/>
<path id="Vector_138" d="M30.8008 63.457C31.1719 63.6426 31.1719 63.6426 31.1719 63.6426L30.8008 63.457Z" fill="var(--fill-0, #52480A)"/>
<path id="Vector_139" d="M21.709 63.457C22.0801 63.6426 22.0801 63.6426 22.0801 63.6426L21.709 63.457Z" fill="var(--fill-0, #52480A)"/>
<path id="Vector_140" d="M68.0957 63.2715C68.4668 63.457 68.4668 63.457 68.4668 63.457L68.0957 63.2715Z" fill="var(--fill-0, #52480A)"/>
<path id="Vector_141" d="M21.3379 63.2715C21.709 63.457 21.709 63.457 21.709 63.457L21.3379 63.2715Z" fill="var(--fill-0, #52480A)"/>
<path id="Vector_142" d="M75.332 63.0859C75.7031 63.2715 75.7031 63.2715 75.7031 63.2715L75.332 63.0859Z" fill="var(--fill-0, #52480A)"/>
<path id="Vector_143" d="M29.873 63.0859C30.2441 63.2715 30.2441 63.2715 30.2441 63.2715L29.873 63.0859Z" fill="var(--fill-0, #52480A)"/>
<path id="Vector_144" d="M20.9668 63.0859C21.3379 63.2715 21.3379 63.2715 21.3379 63.2715L20.9668 63.0859Z" fill="var(--fill-0, #52480A)"/>
<path id="Vector_145" d="M29.3164 62.9004C29.6875 63.0859 29.6875 63.0859 29.6875 63.0859L29.3164 62.9004Z" fill="var(--fill-0, #52480A)"/>
<path id="Vector_146" d="M20.5957 62.9004C20.9668 63.0859 20.9668 63.0859 20.9668 63.0859L20.5957 62.9004Z" fill="var(--fill-0, #52480A)"/>
<path id="Vector_147" d="M28.9453 62.7148C29.3164 62.9004 29.3164 62.9004 29.3164 62.9004L28.9453 62.7148Z" fill="var(--fill-0, #52480A)"/>
<path id="Vector_148" d="M20.2246 62.7148C20.5957 62.9004 20.5957 62.9004 20.5957 62.9004L20.2246 62.7148Z" fill="var(--fill-0, #52480A)"/>
<path id="Vector_149" d="M28.3887 62.5293C28.7598 62.7148 28.7598 62.7148 28.7598 62.7148L28.3887 62.5293Z" fill="var(--fill-0, #52480A)"/>
<path id="Vector_150" d="M19.8535 62.5293C20.2246 62.7148 20.2246 62.7148 20.2246 62.7148L19.8535 62.5293Z" fill="var(--fill-0, #52480A)"/>
<path id="Vector_151" d="M19.4824 62.3438C19.8535 62.5293 19.8535 62.5293 19.8535 62.5293L19.4824 62.3438Z" fill="var(--fill-0, #52480A)"/>
<path id="Vector_152" d="M76.8164 62.1582C77.1875 62.3438 77.1875 62.3438 77.1875 62.3438L76.8164 62.1582Z" fill="var(--fill-0, #52480A)"/>
<path id="Vector_153" d="M70.3223 62.1582C70.6934 62.3438 70.6934 62.3438 70.6934 62.3438L70.3223 62.1582Z" fill="var(--fill-0, #52480A)"/>
<path id="Vector_154" d="M27.4609 62.1582C27.832 62.3438 27.832 62.3438 27.832 62.3438L27.4609 62.1582Z" fill="var(--fill-0, #52480A)"/>
<path id="Vector_155" d="M19.1113 62.1582C19.4824 62.3438 19.4824 62.3438 19.4824 62.3438L19.1113 62.1582Z" fill="var(--fill-0, #52480A)"/>
<path id="Vector_156" d="M70.6934 61.9727C71.0645 62.1582 71.0645 62.1582 71.0645 62.1582L70.6934 61.9727Z" fill="var(--fill-0, #52480A)"/>
<path id="Vector_157" d="M27.0898 61.9727C27.4609 62.1582 27.4609 62.1582 27.4609 62.1582L27.0898 61.9727Z" fill="var(--fill-0, #52480A)"/>
<path id="Vector_158" d="M18.7402 61.9727C19.1113 62.1582 19.1113 62.1582 19.1113 62.1582L18.7402 61.9727Z" fill="var(--fill-0, #52480A)"/>
<path id="Vector_159" d="M77.373 61.7871C77.7441 61.9727 77.7441 61.9727 77.7441 61.9727L77.373 61.7871Z" fill="var(--fill-0, #52480A)"/>
<path id="Vector_160" d="M71.0645 61.7871C71.4355 61.9727 71.4355 61.9727 71.4355 61.9727L71.0645 61.7871Z" fill="var(--fill-0, #52480A)"/>
<path id="Vector_161" d="M18.3691 61.7871C18.7402 61.9727 18.7402 61.9727 18.7402 61.9727L18.3691 61.7871Z" fill="var(--fill-0, #52480A)"/>
<path id="Vector_162" d="M26.1621 61.6016C26.5332 61.7871 26.5332 61.7871 26.5332 61.7871L26.1621 61.6016Z" fill="var(--fill-0, #52480A)"/>
<path id="Vector_163" d="M17.998 61.6016C18.3691 61.7871 18.3691 61.7871 18.3691 61.7871L17.998 61.6016Z" fill="var(--fill-0, #52480A)"/>
<path id="Vector_164" d="M77.9297 61.416C78.3008 61.6016 78.3008 61.6016 78.3008 61.6016L77.9297 61.416Z" fill="var(--fill-0, #52480A)"/>
<path id="Vector_165" d="M25.791 61.416C26.1621 61.6016 26.1621 61.6016 26.1621 61.6016L25.791 61.416Z" fill="var(--fill-0, #52480A)"/>
<path id="Vector_166" d="M25.2344 61.2305C25.6055 61.416 25.6055 61.416 25.6055 61.416L25.2344 61.2305Z" fill="var(--fill-0, #52480A)"/>
<path id="Vector_167" d="M72.3633 61.0449C72.7344 61.2305 72.7344 61.2305 72.7344 61.2305L72.3633 61.0449Z" fill="var(--fill-0, #52480A)"/>
<path id="Vector_168" d="M24.8633 61.0449C25.2344 61.2305 25.2344 61.2305 25.2344 61.2305L24.8633 61.0449Z" fill="var(--fill-0, #52480A)"/>
<path id="Vector_169" d="M24.4922 60.8594C24.8633 61.0449 24.8633 61.0449 24.8633 61.0449L24.4922 60.8594Z" fill="var(--fill-0, #52480A)"/>
<path id="Vector_170" d="M73.291 60.4883C73.6621 60.6738 73.6621 60.6738 73.6621 60.6738L73.291 60.4883Z" fill="var(--fill-0, #52480A)"/>
<path id="Vector_171" d="M15.957 60.4883C16.3281 60.6738 16.3281 60.6738 16.3281 60.6738L15.957 60.4883Z" fill="var(--fill-0, #52480A)"/>
<path id="Vector_172" d="M23.1934 60.3027C23.5645 60.4883 23.5645 60.4883 23.5645 60.4883L23.1934 60.3027Z" fill="var(--fill-0, #52480A)"/>
<path id="Vector_173" d="M22.8223 60.1172C23.1934 60.3027 23.1934 60.3027 23.1934 60.3027L22.8223 60.1172Z" fill="var(--fill-0, #52480A)"/>
<path id="Vector_174" d="M22.4512 59.9316C22.8223 60.1172 22.8223 60.1172 22.8223 60.1172L22.4512 59.9316Z" fill="var(--fill-0, #52480A)"/>
<path id="Vector_175" d="M22.0801 59.7461C22.4512 59.9316 22.4512 59.9316 22.4512 59.9316L22.0801 59.7461Z" fill="var(--fill-0, #52480A)"/>
<path id="Vector_176" d="M74.7754 59.5605C75.1465 59.7461 75.1465 59.7461 75.1465 59.7461L74.7754 59.5605Z" fill="var(--fill-0, #52480A)"/>
<path id="Vector_177" d="M21.709 59.5605C22.0801 59.7461 22.0801 59.7461 22.0801 59.7461L21.709 59.5605Z" fill="var(--fill-0, #52480A)"/>
<path id="Vector_178" d="M21.3379 59.375C21.709 59.5605 21.709 59.5605 21.709 59.5605L21.3379 59.375Z" fill="var(--fill-0, #52480A)"/>
<path id="Vector_179" d="M13.3594 59.0039C13.7305 59.1895 13.7305 59.1895 13.7305 59.1895L13.3594 59.0039Z" fill="var(--fill-0, #52480A)"/>
<path id="Vector_180" d="M12.4316 58.4473C12.8027 58.6328 12.8027 58.6328 12.8027 58.6328L12.4316 58.4473Z" fill="var(--fill-0, #52480A)"/>
<path id="Vector_181" d="M17.627 57.5195C17.998 57.7051 17.998 57.7051 17.998 57.7051L17.627 57.5195Z" fill="var(--fill-0, #52480A)"/>
<path id="Vector_182" d="M17.2559 57.334C17.627 57.5195 17.627 57.5195 17.627 57.5195L17.2559 57.334Z" fill="var(--fill-0, #52480A)"/>
<path id="Vector_183" d="M16.8848 57.1484C17.2559 57.334 17.2559 57.334 17.2559 57.334L16.8848 57.1484Z" fill="var(--fill-0, #52480A)"/>
<path id="Vector_184" d="M9.46289 56.5918C9.83398 56.7773 9.83398 56.7773 9.83398 56.7773L9.46289 56.5918Z" fill="var(--fill-0, #52480A)"/>
<path id="Vector_185" d="M14.8438 56.0352C15.2148 56.2207 15.2148 56.2207 15.2148 56.2207L14.8438 56.0352Z" fill="var(--fill-0, #52480A)"/>
<path id="Vector_186" d="M13.5449 55.293C13.916 55.4785 13.916 55.4785 13.916 55.4785L13.5449 55.293Z" fill="var(--fill-0, #52480A)"/>
<path id="Vector_187" d="M6.67969 54.7363C7.05078 54.9219 7.05078 54.9219 7.05078 54.9219L6.67969 54.7363Z" fill="var(--fill-0, #52480A)"/>
<path id="Vector_188" d="M11.3184 53.9941C11.6895 54.1797 11.6895 54.1797 11.6895 54.1797L11.3184 53.9941Z" fill="var(--fill-0, #52480A)"/>
<path id="Vector_189" d="M8.90625 52.5098C9.27734 52.6953 9.27734 52.6953 9.27734 52.6953L8.90625 52.5098Z" fill="var(--fill-0, #52480A)"/>
<path id="Vector_190" d="M47.3145 50.6543C47.6855 50.8398 47.6855 50.8398 47.6855 50.8398L47.3145 50.6543Z" fill="var(--fill-0, #52480A)"/>
<path id="Vector_191" d="M50.6543 50.4688C51.0254 50.6543 51.0254 50.6543 51.0254 50.6543L50.6543 50.4688Z" fill="var(--fill-0, #52480A)"/>
<path id="Vector_192" d="M46.7578 50.4688C47.1289 50.6543 47.1289 50.6543 47.1289 50.6543L46.7578 50.4688Z" fill="var(--fill-0, #52480A)"/>
<path id="Vector_193" d="M51.0254 50.2832C51.3965 50.4688 51.3965 50.4688 51.3965 50.4688L51.0254 50.2832Z" fill="var(--fill-0, #52480A)"/>
<path id="Vector_194" d="M51.2109 42.4902C51.582 42.6758 51.582 42.6758 51.582 42.6758L51.2109 42.4902Z" fill="var(--fill-0, #52480A)"/>
<path id="Vector_195" d="M46.2012 42.4902C46.5723 42.6758 46.5723 42.6758 46.5723 42.6758L46.2012 42.4902Z" fill="var(--fill-0, #52480A)"/>
<path id="Vector_196" d="M74.9609 37.2949C75.332 37.4805 75.332 37.4805 75.332 37.4805L74.9609 37.2949Z" fill="var(--fill-0, #52480A)"/>
<path id="Vector_197" d="M23.9355 36.9238C24.3066 37.1094 24.3066 37.1094 24.3066 37.1094L23.9355 36.9238Z" fill="var(--fill-0, #52480A)"/>
<path id="Vector_198" d="M24.4922 36.5527C24.8633 36.7383 24.8633 36.7383 24.8633 36.7383L24.4922 36.5527Z" fill="var(--fill-0, #52480A)"/>
<path id="Vector_199" d="M25.0488 36.1816C25.4199 36.3672 25.4199 36.3672 25.4199 36.3672L25.0488 36.1816Z" fill="var(--fill-0, #52480A)"/>
<path id="Vector_200" d="M73.1055 35.9961C73.4766 36.1816 73.4766 36.1816 73.4766 36.1816L73.1055 35.9961Z" fill="var(--fill-0, #52480A)"/>
<path id="Vector_201" d="M25.6055 35.8105C25.9766 35.9961 25.9766 35.9961 25.9766 35.9961L25.6055 35.8105Z" fill="var(--fill-0, #52480A)"/>
<path id="Vector_202" d="M72.5488 35.625C72.9199 35.8105 72.9199 35.8105 72.9199 35.8105L72.5488 35.625Z" fill="var(--fill-0, #52480A)"/>
<path id="Vector_203" d="M77.9297 35.4395C78.3008 35.625 78.3008 35.625 78.3008 35.625L77.9297 35.4395Z" fill="var(--fill-0, #52480A)"/>
<path id="Vector_204" d="M71.9922 35.2539C72.3633 35.4395 72.3633 35.4395 72.3633 35.4395L71.9922 35.2539Z" fill="var(--fill-0, #52480A)"/>
<path id="Vector_205" d="M70.5078 34.3262C70.8789 34.5117 70.8789 34.5117 70.8789 34.5117L70.5078 34.3262Z" fill="var(--fill-0, #52480A)"/>
<path id="Vector_206" d="M28.9453 33.7695C29.3164 33.9551 29.3164 33.9551 29.3164 33.9551L28.9453 33.7695Z" fill="var(--fill-0, #52480A)"/>
<path id="Vector_207" d="M30.2441 33.0273C30.6152 33.2129 30.6152 33.2129 30.6152 33.2129L30.2441 33.0273Z" fill="var(--fill-0, #52480A)"/>
<path id="Vector_208" d="M30.6152 32.8418C30.9863 33.0273 30.9863 33.0273 30.9863 33.0273L30.6152 32.8418Z" fill="var(--fill-0, #52480A)"/>
<path id="Vector_209" d="M67.3535 32.4707C67.7246 32.6562 67.7246 32.6562 67.7246 32.6562L67.3535 32.4707Z" fill="var(--fill-0, #52480A)"/>
<path id="Vector_210" d="M24.8633 31.9141C25.2344 32.0996 25.2344 32.0996 25.2344 32.0996L24.8633 31.9141Z" fill="var(--fill-0, #52480A)"/>
<path id="Vector_211" d="M71.4355 31.1719C71.8066 31.3574 71.8066 31.3574 71.8066 31.3574L71.4355 31.1719Z" fill="var(--fill-0, #52480A)"/>
<path id="Vector_212" d="M26.1621 31.1719C26.5332 31.3574 26.5332 31.3574 26.5332 31.3574L26.1621 31.1719Z" fill="var(--fill-0, #52480A)"/>
<path id="Vector_213" d="M70.1367 30.4297C70.5078 30.6152 70.5078 30.6152 70.5078 30.6152L70.1367 30.4297Z" fill="var(--fill-0, #52480A)"/>
<path id="Vector_214" d="M69.7656 30.2441C70.1367 30.4297 70.1367 30.4297 70.1367 30.4297L69.7656 30.2441Z" fill="var(--fill-0, #52480A)"/>
<path id="Vector_215" d="M69.3945 30.0586C69.7656 30.2441 69.7656 30.2441 69.7656 30.2441L69.3945 30.0586Z" fill="var(--fill-0, #52480A)"/>
<path id="Vector_216" d="M69.0234 29.873C69.3945 30.0586 69.3945 30.0586 69.3945 30.0586L69.0234 29.873Z" fill="var(--fill-0, #52480A)"/>
<path id="Vector_217" d="M68.6523 29.6875C69.0234 29.873 69.0234 29.873 69.0234 29.873L68.6523 29.6875Z" fill="var(--fill-0, #52480A)"/>
<path id="Vector_218" d="M68.2812 29.502C68.6523 29.6875 68.6523 29.6875 68.6523 29.6875L68.2812 29.502Z" fill="var(--fill-0, #52480A)"/>
<path id="Vector_219" d="M67.9102 29.3164C68.2812 29.502 68.2812 29.502 68.2812 29.502L67.9102 29.3164Z" fill="var(--fill-0, #52480A)"/>
<path id="Vector_220" d="M67.5391 29.1309C67.9102 29.3164 67.9102 29.3164 67.9102 29.3164L67.5391 29.1309Z" fill="var(--fill-0, #52480A)"/>
<path id="Vector_221" d="M67.168 28.9453C67.5391 29.1309 67.5391 29.1309 67.5391 29.1309L67.168 28.9453Z" fill="var(--fill-0, #52480A)"/>
<path id="Vector_222" d="M66.7969 28.7598C67.168 28.9453 67.168 28.9453 67.168 28.9453L66.7969 28.7598Z" fill="var(--fill-0, #52480A)"/>
<path id="Vector_223" d="M65.8691 28.3887C66.2402 28.5742 66.2402 28.5742 66.2402 28.5742L65.8691 28.3887Z" fill="var(--fill-0, #52480A)"/>
<path id="Vector_224" d="M32.2852 28.2031C32.6562 28.3887 32.6562 28.3887 32.6562 28.3887L32.2852 28.2031Z" fill="var(--fill-0, #52480A)"/>
<path id="Vector_225" d="M32.6562 28.0176C33.0273 28.2031 33.0273 28.2031 33.0273 28.2031L32.6562 28.0176Z" fill="var(--fill-0, #52480A)"/>
<path id="Vector_226" d="M33.2129 27.832C33.584 28.0176 33.584 28.0176 33.584 28.0176L33.2129 27.832Z" fill="var(--fill-0, #52480A)"/>
<path id="Vector_227" d="M33.584 27.6465C33.9551 27.832 33.9551 27.832 33.9551 27.832L33.584 27.6465Z" fill="var(--fill-0, #52480A)"/>
<path id="Vector_228" d="M34.1406 27.4609C34.5117 27.6465 34.5117 27.6465 34.5117 27.6465L34.1406 27.4609Z" fill="var(--fill-0, #52480A)"/>
<path id="Vector_229" d="M34.6973 27.2754C35.0684 27.4609 35.0684 27.4609 35.0684 27.4609L34.6973 27.2754Z" fill="var(--fill-0, #52480A)"/>
<path id="Vector_230" d="M36.9238 26.5332C37.2949 26.7188 37.2949 26.7188 37.2949 26.7188L36.9238 26.5332Z" fill="var(--fill-0, #52480A)"/>
<path id="Vector_231" d="M66.7969 21.5234C67.168 21.709 67.168 21.709 67.168 21.709L66.7969 21.5234Z" fill="var(--fill-0, #52480A)"/>
<path id="Vector_232" d="M65.127 21.5234C65.498 21.709 65.498 21.709 65.498 21.709L65.127 21.5234Z" fill="var(--fill-0, #52480A)"/>
<path id="Vector_233" d="M25.6055 21.5234C25.9766 21.709 25.9766 21.709 25.9766 21.709L25.6055 21.5234Z" fill="var(--fill-0, #52480A)"/>
<path id="Vector_234" d="M23.9355 21.5234C24.3066 21.709 24.3066 21.709 24.3066 21.709L23.9355 21.5234Z" fill="var(--fill-0, #52480A)"/>
<path id="Vector_235" d="M48.0566 16.5137C48.4277 16.6992 48.4277 16.6992 48.4277 16.6992L48.0566 16.5137Z" fill="var(--fill-0, #52480A)"/>
<path id="Vector_236" d="M46.5723 16.5137C46.9434 16.6992 46.9434 16.6992 46.9434 16.6992L46.5723 16.5137Z" fill="var(--fill-0, #52480A)"/>
</g>
</svg>
