<svg preserveAspectRatio="none" width="100%" height="100%" overflow="visible" style="display: block;" viewBox="0 0 96 96" fill="none" xmlns="http://www.w3.org/2000/svg">
<g id="Simplification" clip-path="url(#clip0_0_10)">
<path id="Vector" d="M38.88 0.24C39.3491 0.817283 39.645 1.4592 39.96 2.13C40.167 2.54633 40.3742 2.96257 40.5816 3.37875C40.7481 3.7196 40.7481 3.7196 40.918 4.06734C41.723 5.69662 42.571 7.30476 43.4194 8.91182C44.0402 10.0933 44.6494 11.2613 45.1491 12.4997C46.4173 15.5305 48.4878 16.5351 51.3843 17.9014C52.4724 18.431 53.5108 19.0395 54.555 19.65C54.9726 19.8904 55.3904 20.1304 55.8084 20.37C56.021 20.4919 56.2336 20.6138 56.4526 20.7394C57.6513 21.423 58.8556 22.0965 60.06 22.77C60.3105 22.9101 60.5609 23.0501 60.819 23.1945C61.5859 23.6231 62.3529 24.0516 63.12 24.48C63.8874 24.9085 64.6547 25.3372 65.4214 25.7667C65.9239 26.0471 66.4274 26.3256 66.932 26.602C68.1547 27.276 69.3365 27.9723 70.4906 28.7587C72.6057 30.2804 72.6057 30.2804 75.0703 30.5887C75.8692 30.1738 76.5358 29.7252 77.2446 29.1771C78.253 28.4393 79.3603 27.857 80.445 27.24C80.9413 26.9497 81.4372 26.6588 81.9328 26.3672C84.1768 25.0528 86.436 23.7652 88.6969 22.4803C89.6248 21.9528 90.5492 21.4203 91.4681 20.8772C91.6446 20.7741 91.8211 20.671 92.003 20.5648C92.3135 20.3832 92.6227 20.1993 92.9302 20.0125C93.8218 19.4957 94.4914 19.2859 95.52 19.44C96.0855 20.2882 96.1192 20.6006 96 21.6C95.5995 22.2874 95.5995 22.2874 95.0212 23.0353C94.7986 23.3319 94.5769 23.6293 94.3561 23.9272C94.2347 24.0907 94.1133 24.2542 93.9882 24.4227C93.2576 25.434 92.5781 26.4793 91.8937 27.5222C91.7448 27.7486 91.5959 27.9749 91.4424 28.2081C90.9811 28.9101 90.5205 29.6125 90.06 30.315C89.5946 31.0235 89.129 31.7319 88.6635 32.4403C88.3764 32.8773 88.0895 33.3143 87.8027 33.7514C87.6713 33.9518 87.5398 34.1522 87.4043 34.3587C87.2911 34.5314 87.1779 34.7041 87.0612 34.882C86.64 35.52 86.64 35.52 86.2783 35.9523C84.9992 37.5907 84.9951 39.1047 85.0145 41.1197C85.0125 41.4629 85.0099 41.8061 85.0068 42.1493C85 43.075 85.0019 44.0004 85.0055 44.9261C85.0078 45.8957 85.0019 46.8653 84.9969 47.8349C84.9887 49.6682 84.9877 51.5015 84.9894 53.3349C84.991 55.4232 84.9844 57.5115 84.9771 59.5999C84.9624 63.8932 84.9578 68.1866 84.96 72.48C84.8016 72.48 84.6432 72.48 84.48 72.48C84.4707 72.658 84.4613 72.8359 84.4517 73.0193C84.1574 73.9379 83.575 74.2066 82.7728 74.6512C82.621 74.7396 82.4692 74.828 82.3129 74.9191C81.8122 75.2096 81.3087 75.4947 80.805 75.78C80.4539 75.9828 80.103 76.186 79.7524 76.3897C79.2143 76.7023 78.676 77.0145 78.137 77.3253C76.4593 78.2931 74.806 79.2978 73.155 80.31C70.7603 81.773 68.3471 83.2015 65.9228 84.6149C63.7652 85.8735 61.6224 87.1542 59.49 88.455C57.2284 89.8345 54.9598 91.2008 52.68 92.55C52.421 92.7033 52.162 92.8566 51.8952 93.0146C51.4013 93.3064 50.9067 93.597 50.4112 93.8862C49.9041 94.1871 49.4018 94.4963 48.9037 94.812C48.5269 95.0464 48.5269 95.0464 48.1425 95.2856C47.8072 95.4997 47.8072 95.4997 47.4652 95.7182C46.6263 96.0736 46.2282 96.0161 45.36 95.76C44.6863 95.423 44.6863 95.423 43.9856 94.9875C43.5895 94.744 43.5895 94.744 43.1855 94.4955C42.9003 94.317 42.6151 94.1385 42.33 93.96C42.0319 93.7758 41.7336 93.5918 41.4352 93.4081C40.814 93.0254 40.1935 92.6417 39.5735 92.2571C38.2493 91.437 36.9172 90.6297 35.585 89.8226C35.1586 89.5642 34.7324 89.3054 34.3063 89.0466C32.7138 88.0795 31.1187 87.1169 29.52 86.16C26.9123 84.5992 24.3158 83.0202 21.7191 81.4412C20.6924 80.8172 19.6647 80.1948 18.6366 79.5731C16.0869 78.031 13.5383 76.4869 11.01 74.91C10.8223 74.7944 10.6347 74.6787 10.4413 74.5596C10.1873 74.3998 10.1873 74.3998 9.92812 74.2369C9.78237 74.146 9.63662 74.055 9.48645 73.9614C9.12 73.68 9.12 73.68 8.64 72.96C8.59099 72.3348 8.59099 72.3348 8.6065 71.5685C8.61105 71.278 8.61559 70.9876 8.62027 70.6883C8.62771 70.3657 8.63517 70.0431 8.64264 69.7205C8.64867 69.3809 8.65443 69.0414 8.65995 68.7019C8.67206 67.9691 8.68533 67.2365 8.69928 66.5038C8.72073 65.3386 8.73508 64.1734 8.74762 63.0081C8.74976 62.8108 8.7519 62.6136 8.75411 62.4105C8.75846 62.0069 8.76277 61.6034 8.76707 61.1999C8.79594 58.4881 8.82807 55.7765 8.88521 53.0651C8.92372 51.2356 8.94879 49.4064 8.9592 47.5765C8.96518 46.6109 8.97733 45.6465 9.00596 44.6813C9.15492 39.4827 8.45701 36.0417 5.51756 31.6835C4.69852 30.4427 3.97684 29.1456 3.24 27.855C2.97816 27.4074 2.71576 26.9602 2.4525 26.5134C2.3278 26.301 2.20311 26.0885 2.07463 25.8696C1.79075 25.3879 1.5051 24.9073 1.21834 24.4273C0.990688 24.0436 0.990688 24.0436 0.758437 23.6522C0.619547 23.4196 0.480657 23.1871 0.337559 22.9475C0.0475825 22.4084 -0.164897 21.9919 -0.255 21.39C0.0477875 20.4994 0.219934 20.4382 1.01156 19.9866C1.22946 19.8613 1.44736 19.736 1.67186 19.6069C1.91214 19.4726 2.15243 19.3383 2.4 19.2C2.77459 18.9893 2.77459 18.9893 3.15674 18.7744C3.99258 18.3077 4.8309 17.8457 5.67 17.385C5.97833 17.2152 6.28665 17.0454 6.59496 16.8756C8.73707 15.697 10.8869 14.5329 13.0391 13.3728C14.6443 12.5049 16.2346 11.6135 17.82 10.71C20.0035 9.46584 22.2112 8.27119 24.4299 7.09142C26.3875 6.04982 28.3285 4.98327 30.255 3.885C31.1294 3.38896 32.0045 2.89408 32.88 2.4C33.0966 2.27745 33.3131 2.1549 33.5362 2.02863C34.1602 1.67801 34.787 1.3332 35.415 0.99C35.5993 0.885489 35.7835 0.780978 35.9733 0.673301C36.9986 0.121171 37.7463 -0.274593 38.88 0.24ZM35.805 3.71812C35.569 3.84646 35.3331 3.97479 35.09 4.10701C34.7088 4.31639 34.7088 4.31639 34.32 4.53C34.0577 4.67314 33.7954 4.81629 33.5252 4.96377C31.7052 5.95847 29.8905 6.96247 28.0791 7.9725C26.5515 8.8238 25.0209 9.66975 23.49 10.515C23.3408 10.5974 23.1916 10.6797 23.0379 10.7646C20.7499 12.0274 18.4549 13.2767 16.1555 14.5186C14.6251 15.3459 13.1006 16.1828 11.5813 17.0304C9.75418 18.0495 7.92208 19.0597 6.09 20.07C5.93066 20.1579 5.77133 20.2457 5.60717 20.3363C4.69816 20.8376 3.7891 21.3388 2.88 21.84C3.79513 23.7088 4.75697 25.5389 5.79 27.345C5.92297 27.5785 6.05595 27.8119 6.19295 28.0525C6.46927 28.5375 6.74585 29.0223 7.0227 29.507C7.43975 30.2396 7.85325 30.974 8.26594 31.7091C8.5256 32.1694 8.78528 32.6297 9.045 33.09C9.22674 33.4153 9.22674 33.4153 9.41215 33.7471C9.52457 33.9455 9.63699 34.1438 9.75281 34.3481C9.8511 34.5229 9.94938 34.6976 10.0506 34.8777C10.2976 35.3182 10.2976 35.3182 10.8 35.52C11.4 35.2495 11.4 35.2495 12.0806 34.8384C12.3476 34.6842 12.6146 34.53 12.8897 34.3711C13.1831 34.1991 13.4766 34.027 13.77 33.855C14.0739 33.6787 14.378 33.5026 14.6822 33.3267C15.3151 32.9605 15.9474 32.5934 16.5795 32.2257C18.0082 31.3955 19.4444 30.5784 20.88 29.76C21.4401 29.4401 22 29.1201 22.56 28.8C22.84 28.64 23.12 28.48 23.4 28.32C23.6079 28.2012 23.6079 28.2012 23.82 28.08C24.24 27.84 24.66 27.6 25.08 27.36C25.2879 27.2412 25.2879 27.2412 25.5 27.12C25.78 26.96 26.06 26.8 26.3401 26.64C27.0397 26.2402 27.7393 25.8404 28.4389 25.4405C29.9863 24.5562 31.5338 23.6724 33.0817 22.7891C34.0572 22.2325 35.032 21.6745 36.0066 21.1162C37.0127 20.5402 38.0204 19.9671 39.0304 19.398C39.616 19.0675 40.2007 18.7354 40.7852 18.403C41.1966 18.1697 41.6094 17.9388 42.0221 17.7079C42.2682 17.5676 42.5143 17.4273 42.7678 17.2828C42.9852 17.1602 43.2026 17.0376 43.4266 16.9113C43.9911 16.5824 43.9911 16.5824 44.16 15.84C43.903 15.2315 43.6311 14.666 43.3228 14.0841C43.233 13.9101 43.1431 13.7361 43.0505 13.5568C42.7577 12.9916 42.4615 12.4283 42.165 11.865C41.9651 11.4811 41.7652 11.0971 41.5656 10.713C40.2337 8.15804 38.8751 5.61873 37.44 3.12C36.7715 3.12 36.3916 3.39764 35.805 3.71812ZM47.52 18.72C47.4582 22.5983 47.4117 26.4764 47.3832 30.3551C47.3696 32.1561 47.3511 33.9569 47.3208 35.7578C47.2945 37.328 47.2775 38.898 47.2716 40.4684C47.2682 41.2996 47.2601 42.1301 47.2409 42.9611C47.2195 43.8902 47.2191 44.8187 47.2203 45.7481C47.2108 46.0217 47.2013 46.2954 47.1915 46.5773C47.2085 47.7688 47.2646 48.4449 48.0941 49.3385C49.2704 50.3234 49.2704 50.3234 50.7048 50.5919C51.2695 50.3309 51.4291 50.0343 51.7341 49.4953C51.8445 49.3042 51.955 49.113 52.0688 48.9161C52.1864 48.7078 52.3039 48.4996 52.425 48.285C52.6867 47.8449 52.9486 47.4049 53.2106 46.965C53.7177 46.1013 54.195 45.2298 54.6544 44.34C56.5801 40.7967 59.1999 39.3736 62.751 37.6298C64.1195 36.937 65.4323 36.1541 66.75 35.37C68.329 34.4391 69.9126 33.5211 71.52 32.64C71.52 32.4816 71.52 32.3232 71.52 32.16C71.2708 32.0228 71.2708 32.0228 71.0166 31.8829C68.0206 30.2314 65.0334 28.5704 62.085 26.835C60.0705 25.6501 58.038 24.5081 55.9817 23.3976C54.0596 22.3583 52.1573 21.2858 50.2584 20.2049C50.0397 20.0806 49.821 19.9562 49.5956 19.8281C49.403 19.7183 49.2104 19.6084 49.0119 19.4952C48.5206 19.2225 48.0233 18.9696 47.52 18.72ZM43.3594 19.665C42.9588 19.8952 42.9588 19.8952 42.5501 20.1301C42.2568 20.3001 41.9634 20.47 41.67 20.64C41.3665 20.8148 41.063 20.9894 40.7594 21.1639C40.1272 21.5275 39.4954 21.8916 38.8637 22.256C37.555 23.0108 36.2439 23.7616 34.9323 24.5114C34.6529 24.6712 34.3735 24.831 34.0942 24.9908C32.1161 26.1225 30.1307 27.2406 28.14 28.35C25.949 29.5712 23.7783 30.8234 21.6155 32.0938C19.5407 33.3093 17.4456 34.4864 15.3436 35.6541C14.9856 35.8531 14.9856 35.8531 14.6203 36.0563C14.4094 36.1731 14.1984 36.29 13.9811 36.4104C13.5506 36.6567 13.1327 36.9249 12.72 37.2C12.72 37.3584 12.72 37.5168 12.72 37.68C12.8839 37.774 13.0478 37.8679 13.2166 37.9648C16.3565 39.7666 19.4856 41.5828 22.5853 43.4531C23.8175 44.1962 25.0557 44.9289 26.295 45.66C27.7686 46.5293 29.2419 47.3991 30.7134 48.2719C30.8561 48.3565 30.9988 48.4411 31.1458 48.5283C31.841 48.9406 32.5361 49.353 33.2312 49.7655C33.7414 50.0682 34.2523 50.3699 34.7637 50.6707C35.2854 50.9806 35.8038 51.2962 36.3195 51.6162C36.5748 51.7723 36.8301 51.9285 37.0931 52.0894C37.3214 52.2316 37.5497 52.3738 37.7849 52.5203C38.3638 52.8436 38.3638 52.8436 38.8999 52.7599C39.4115 52.5376 39.8736 52.2865 40.3481 51.9928C40.5334 51.8788 40.7188 51.7648 40.9097 51.6473C41.1969 51.468 41.1969 51.468 41.49 51.285C41.6796 51.1682 41.8693 51.0514 42.0647 50.9311C42.6052 50.597 43.1443 50.2617 43.68 49.92C43.9255 49.8135 44.1709 49.707 44.4238 49.5972C45.2209 48.8677 45.2297 48.7343 45.2932 47.7056C45.2973 47.1695 45.2935 46.6332 45.2835 46.0971C45.2837 45.8044 45.2839 45.5116 45.2841 45.21C45.2833 44.4081 45.2761 43.6066 45.266 42.8048C45.257 41.9666 45.2562 41.1283 45.2544 40.29C45.25 38.7031 45.2382 37.1163 45.2237 35.5294C45.2076 33.7226 45.1997 31.9158 45.1925 30.109C45.1774 26.3926 45.1521 22.6763 45.12 18.96C44.4054 18.96 43.9762 19.3088 43.3594 19.665ZM88.2225 25.6734C87.8183 25.9055 87.8183 25.9055 87.4059 26.1422C87.1106 26.3131 86.8153 26.484 86.52 26.655C86.2147 26.8307 85.9094 27.0063 85.6041 27.1819C84.8191 27.6334 84.0348 28.0862 83.2508 28.5394C82.5683 28.9339 81.8854 29.3277 81.2025 29.7216C80.4388 30.1621 79.6752 30.6028 78.9118 31.0439C76.86 32.2292 74.8025 33.4043 72.7439 34.5779C70.547 35.8309 68.3537 37.0904 66.1806 38.3845C65.0043 39.0811 63.8253 39.7355 62.5959 40.3341C59.2827 41.9817 57.6691 43.5557 56.0286 46.8554C55.3894 48.074 54.6282 49.2164 53.88 50.37C53.6024 50.8043 53.3249 51.2387 53.0475 51.6731C52.6221 52.3367 52.1896 52.9928 51.7425 53.6419C51.3169 54.1891 51.3169 54.1891 51.36 54.72C52.2867 54.3758 53.1115 53.9444 53.9634 53.4441C54.098 53.3653 54.2325 53.2864 54.3712 53.2052C54.813 52.946 55.254 52.6856 55.695 52.425C56.005 52.2426 56.3151 52.0603 56.6252 51.878C58.9317 50.519 61.2208 49.1323 63.5055 47.7371C65.2001 46.7027 66.9014 45.6891 68.6399 44.7301C70.3555 43.7784 72.0329 42.7623 73.711 41.7462C75.0463 40.9377 76.3862 40.1404 77.7403 39.3638C78.01 39.2072 78.2796 39.0507 78.5574 38.8895C79.0708 38.5919 79.5862 38.2975 80.1037 38.0071C81.7175 37.0642 82.7264 36.1077 83.76 34.56C83.9344 34.3082 84.1087 34.0565 84.2884 33.7971C84.8796 32.9413 85.4602 32.0786 86.04 31.215C86.3356 30.7761 86.6314 30.3373 86.9273 29.8986C87.1191 29.6143 87.3107 29.3298 87.502 29.0453C88.2196 27.9804 88.9591 26.9328 89.7127 25.8932C90.0428 25.4619 90.0428 25.4619 90 24.96C89.2809 24.96 88.8432 25.3156 88.2225 25.6734ZM11.28 39.6C11.2295 43.7995 11.1914 47.9989 11.1681 52.1987C11.157 54.1488 11.1418 56.0986 11.1171 58.0486C11.0955 59.7483 11.0816 61.448 11.0768 63.1478C11.074 64.0479 11.0674 64.9475 11.0516 65.8474C11.0342 66.8525 11.0338 67.857 11.0348 68.8623C11.027 69.1601 11.0193 69.4579 11.0113 69.7647C10.9967 71.2669 10.9967 71.2669 11.7497 72.4957C12.2993 72.8671 12.84 73.1595 13.44 73.44C13.6994 73.6025 13.9587 73.7649 14.2259 73.9323C14.4656 74.0774 14.7053 74.2224 14.9522 74.3719C15.0852 74.4525 15.2181 74.5332 15.3551 74.6163C15.7815 74.8746 16.2082 75.1323 16.635 75.39C16.9364 75.5725 17.2378 75.755 17.5392 75.9375C19.3985 77.0629 21.2613 78.1826 23.1261 79.2988C25.5469 80.7492 27.9572 82.2171 30.3685 83.6831C31.3733 84.2939 32.3787 84.9037 33.3844 85.5131C33.8066 85.7691 34.2288 86.0251 34.6511 86.281C34.9292 86.4496 35.2074 86.6182 35.4855 86.7867C37.0592 87.7403 38.6291 88.6997 40.1925 89.67C40.3378 89.76 40.4831 89.85 40.6328 89.9428C41.3297 90.3747 42.0259 90.8075 42.7211 91.2422C42.9663 91.3944 43.2116 91.5466 43.4644 91.7034C43.6805 91.8383 43.8966 91.9733 44.1193 92.1122C44.6109 92.4387 44.6109 92.4387 45.12 92.4C45.2776 88.2465 45.3958 84.0939 45.4682 79.9381C45.5027 78.0079 45.5497 76.0796 45.627 74.1506C45.6944 72.4672 45.7374 70.7852 45.7523 69.1005C45.761 68.2092 45.7811 67.3218 45.8305 66.4317C46.0175 63.1303 46.0175 63.1303 45.12 60C43.4722 58.2616 41.3363 57.2501 39.1779 56.2782C38.2139 55.8343 37.3312 55.3067 36.4425 54.7303C34.0584 53.2812 31.6739 51.8329 29.28 50.4C27.3957 49.2721 25.5169 48.1352 23.64 46.995C23.4995 46.9097 23.359 46.8244 23.2143 46.7365C21.7337 45.8373 20.2537 44.9373 18.7745 44.0358C18.1674 43.6659 17.5601 43.2962 16.9528 42.9266C16.6653 42.7516 16.3779 42.5763 16.0907 42.4009C15.6889 42.1557 15.2868 41.9109 14.8847 41.6663C14.6572 41.5276 14.4298 41.3889 14.1954 41.246C13.5724 40.8782 12.9456 40.5227 12.3128 40.1721C12.1191 40.0648 11.9255 39.9574 11.7259 39.8468C11.5788 39.7654 11.4316 39.6839 11.28 39.6ZM81.3862 40.1391C81.1848 40.2587 80.9834 40.3784 80.7759 40.5016C80.5528 40.6347 80.3298 40.7679 80.1 40.905C79.6141 41.1936 79.1282 41.482 78.6422 41.7703C78.3819 41.9248 78.1216 42.0793 77.8534 42.2385C76.4599 43.0634 75.0624 43.8817 73.665 44.7C73.369 44.8734 73.073 45.0468 72.777 45.2203C72.177 45.5717 71.577 45.9231 70.9771 46.2745C69.6623 47.0446 68.3478 47.8153 67.0333 48.586C66.3089 49.0107 65.5844 49.4353 64.86 49.86C64.57 50.03 64.28 50.2 63.99 50.37C62.25 51.39 62.25 51.39 61.8151 51.645C61.5248 51.8151 61.2345 51.9853 60.9443 52.1554C60.2234 52.578 59.5025 53.0006 58.7816 53.4231C57.4275 54.2169 56.0735 55.0107 54.7197 55.805C54.083 56.1785 53.4464 56.5519 52.8097 56.9254C52.5073 57.1027 52.205 57.2801 51.9028 57.4575C51.4825 57.7041 51.0622 57.9507 50.6419 58.1972C50.4034 58.3371 50.1649 58.4771 49.9192 58.6212C49.1221 59.0854 48.3208 59.5424 47.52 60C47.52 70.7712 47.52 81.5424 47.52 92.64C52.7646 89.6431 57.9903 86.6173 63.1984 83.5577C64.5072 82.789 65.8168 82.0216 67.1264 81.2541C67.8478 80.8313 68.5692 80.4085 69.2906 79.9856C69.4337 79.9018 69.5767 79.8179 69.7241 79.7315C70.6182 79.2074 71.5122 78.683 72.406 78.1584C73.0147 77.8012 73.6234 77.444 74.2321 77.0869C74.6477 76.8431 75.0631 76.5991 75.4786 76.3552C75.8737 76.1234 75.8737 76.1234 76.2769 75.8869C76.529 75.7301 76.7811 75.5733 77.0408 75.4117C77.7259 75.0062 78.3992 74.7264 79.1501 74.4642C80.4833 73.9451 81.6528 73.3768 82.56 72.24C83.3416 70.0911 83.1057 67.6365 83.0224 65.3814C82.9937 64.4738 82.9912 63.5661 82.9858 62.6581C82.9716 60.9423 82.9343 59.2278 82.8884 57.5126C82.8373 55.5585 82.8123 53.6044 82.7895 51.6498C82.7419 47.6324 82.6618 43.6164 82.56 39.6C82.1194 39.6 81.755 39.9191 81.3862 40.1391ZM44.9831 51.8025C44.7681 51.9433 44.5531 52.084 44.3316 52.2291C44.1066 52.3779 43.8817 52.5267 43.65 52.68C43.4232 52.8288 43.1965 52.9776 42.9628 53.1309C42.4012 53.4997 41.8403 53.8694 41.28 54.24C41.8874 54.8808 42.4615 55.3784 43.2262 55.8188C43.4072 55.9239 43.5882 56.0291 43.7747 56.1375C43.9612 56.2439 44.1478 56.3504 44.34 56.46C44.5303 56.5701 44.7205 56.6803 44.9166 56.7938C45.3836 57.0639 45.8514 57.3325 46.32 57.6C47.0609 56.7106 47.697 55.781 48.3 54.795C48.3872 54.6556 48.4745 54.5163 48.5644 54.3727C49.0478 53.6406 49.0478 53.6406 49.2 52.8C48.6227 52.362 48.6227 52.362 47.91 51.93C47.6705 51.7784 47.4311 51.6268 47.1844 51.4706C46.1806 50.9069 45.8963 51.2014 44.9831 51.8025Z" fill="var(--fill-0, #624932)"/>
</g>
<defs>
<clipPath id="clip0_0_10">
<rect width="96" height="96" fill="white"/>
</clipPath>
</defs>
</svg>
