<svg preserveAspectRatio="none" width="100%" height="100%" overflow="visible" style="display: block;" viewBox="0 0 174 98" fill="none" xmlns="http://www.w3.org/2000/svg">
<g id="Simplification" clip-path="url(#clip0_0_249)">
<path id="Vector" d="M41.9064 0.270539C44.4576 2.54318 44.6189 5.76503 44.9971 8.98383C45.0518 9.44713 45.1085 9.91015 45.1654 10.3732C45.3423 11.8322 45.5004 13.2878 45.5969 14.7545C45.6145 14.9989 45.6321 15.2433 45.6498 15.4877C45.68 15.9335 45.7044 16.3797 45.7218 16.8262C45.8331 18.4316 46.3988 19.1751 47.5485 20.258C48.0771 20.8834 48.5871 21.5233 49.099 22.1625C49.2584 22.3587 49.4179 22.5549 49.5775 22.751C52.9066 26.8625 55.8379 31.2361 58.1328 36.0141C58.2183 36.1918 58.3037 36.3694 58.3918 36.5524C58.9234 37.6791 59.3783 38.8168 59.7802 39.9965C61.648 31.4036 58.8802 20.0091 57.4376 11.508C57.4167 11.3846 57.3958 11.2612 57.3743 11.134C57.2795 10.577 57.1823 10.0206 57.0813 9.46472C57.0315 9.18186 57.0315 9.18186 56.9807 8.89329C56.9514 8.7331 56.9221 8.57292 56.8919 8.40788C56.8479 7.92511 56.8882 7.56342 57.0238 7.09894C57.4908 6.62959 57.7501 6.70086 58.402 6.69854C61.0765 6.74876 63.2262 8.05086 65.0533 9.95169C67.5471 12.6964 68.762 16.3979 69.46 19.9766C69.4867 20.1131 69.5134 20.2497 69.5409 20.3903C70.0315 23.0813 70.1822 25.7522 70.1707 28.4823C70.1703 28.6411 70.1699 28.7999 70.1695 28.9636C70.1411 36.5713 68.1513 43.6823 65.93 50.8959C65.1677 53.3759 64.44 55.8605 63.7856 58.3715C63.7338 58.5689 63.7338 58.5689 63.681 58.7704C62.3984 62.9753 62.3984 62.9753 62.8186 67.1956C63.1325 67.6378 63.3643 67.6689 63.8866 67.7869C64.6049 67.9617 65.3114 68.1503 66.0178 68.3692C71.4006 70.3348 71.4006 70.3348 76.911 69.983C78.4468 69.0635 79.1869 67.3541 79.9765 65.8124C81.5098 62.8426 83.3516 60.0363 85.2772 57.311C85.3795 57.1652 85.4818 57.0195 85.5872 56.8693C85.9015 56.4232 86.2187 55.9794 86.537 55.5362C86.6792 55.3351 86.6792 55.3351 86.8244 55.1299C87.5841 54.0863 88.423 53.0289 89.6703 52.6036C90.7818 52.6634 91.5272 53.1436 92.3083 53.9238C94.6742 56.7865 95.8459 60.6786 96.9502 64.1671C97.7223 66.7173 97.7223 66.7173 99.447 68.6736C100.216 69.0601 100.786 69.1443 101.644 69.0848C102.46 68.7493 102.674 68.3186 103.022 67.5265C103.204 66.8753 103.357 66.2208 103.511 65.5624C103.824 64.5723 104.34 63.6994 105.261 63.1979C106.282 63.024 107.215 63.0369 108.115 63.5875C108.866 64.161 109.492 64.8644 110.104 65.5825C110.655 66.2238 111.163 66.7392 112.01 66.909C113.503 66.9117 114.526 66.2967 115.598 65.2756C115.926 64.8967 116.225 64.4987 116.524 64.0961C117.99 62.1815 119.583 60.4353 122.065 60.0055C124.932 59.6406 127.472 60.7789 129.703 62.5053C130.451 63.0946 131.16 63.7181 131.83 64.3957C132.135 64.6204 132.135 64.6204 132.548 64.5722C133.11 64.3694 133.453 64.0789 133.902 63.6848C136.456 61.5134 136.456 61.5134 138.339 61.6396C140.002 61.9982 140.832 63.2038 141.73 64.5506C141.794 64.6502 141.857 64.7498 141.923 64.8525C142.275 65.3918 142.536 65.7758 143.162 65.9682C144.146 65.9196 144.844 65.6862 145.747 65.2756C147.268 64.833 148.758 65.2035 150.258 65.5353C154.641 66.4254 158.874 65.7391 163.247 65.114C165.248 64.8368 167.222 64.7065 169.241 64.7021C169.463 64.7011 169.685 64.7002 169.914 64.6992C173.28 64.7248 173.28 64.7248 174 65.4488C174.096 66.3527 174.096 66.3527 173.79 66.7836C173.371 67.0886 173.16 67.0309 172.653 66.9577C168.238 66.4286 163.914 67.0514 159.549 67.6968C155.975 68.2211 152.4 68.2949 148.88 67.4075C147.489 67.0767 146.554 67.2407 145.219 67.7105C144.004 68.1303 143.176 68.2427 141.956 67.7321C140.899 67.1592 140.369 66.2574 139.717 65.2756C138.999 64.2993 138.999 64.2993 137.994 63.674C136.84 63.7707 136.101 64.5481 135.259 65.2756C134.306 66.0965 133.418 66.7469 132.148 66.8914C131.476 66.8183 131.229 66.5995 130.726 66.1522C130.561 66.0098 130.396 65.8674 130.225 65.7207C129.909 65.4392 129.593 65.1571 129.278 64.8739C128.38 64.0934 127.476 63.4839 126.419 62.949C126.307 62.8918 126.194 62.8347 126.078 62.7758C124.677 62.0976 123.341 61.8011 121.8 62.159C120.249 62.7658 119.234 64.0388 118.182 65.2756C115.156 68.7799 115.156 68.7799 113.022 68.9529C110.972 68.9993 110.074 68.4413 108.589 67.0632C108.242 66.7128 107.941 66.3587 107.641 65.9682C107.241 65.4693 107.165 65.4509 106.489 65.2864C106.311 65.2829 106.134 65.2793 105.95 65.2756C105.469 65.9795 105.285 66.6713 105.111 67.494C104.82 68.7256 104.571 69.7811 103.518 70.5707C102.271 71.2986 101.011 71.398 99.6213 71.0415C97.8317 70.3946 96.8125 69.2045 95.9584 67.5265C95.2969 66.0086 94.7614 64.4364 94.235 62.8671C92.8271 58.5611 92.8271 58.5611 90.2733 54.8869C89.8099 54.9175 89.62 55.0247 89.288 55.3523C86.2932 59.2599 83.764 63.4236 81.3377 67.7051C80.1577 69.7766 79.1411 71.4283 76.7818 72.2197C74.4089 72.7982 72.0495 72.1939 69.7358 71.6266C69.2751 71.5137 68.8137 71.4046 68.3517 71.2971C67.676 71.1397 67.0011 70.9791 66.3267 70.8163C66.3869 70.9102 66.4471 71.0042 66.5091 71.101C66.5875 71.2249 66.6659 71.3487 66.7467 71.4764C66.8246 71.5989 66.9025 71.7214 66.9829 71.8477C67.46 72.6699 67.52 73.5272 67.3604 74.4523C67.0519 75.0183 66.6303 75.4096 66.1544 75.8375C66.0061 75.9727 65.8578 76.108 65.7049 76.2473C59.411 81.7352 50.7315 84.771 42.4233 84.6787C42.2847 84.6779 42.1461 84.6771 42.0033 84.6763C41.6695 84.6743 41.3358 84.6712 41.002 84.6678C40.9797 84.9049 40.9797 84.9049 40.9569 85.1467C40.3881 89.0921 38.2282 93.2464 36.3613 96.7231C36.3025 96.8358 36.2438 96.9485 36.1833 97.0647C35.9116 97.5462 35.7435 97.7952 35.2213 97.9966C34.1722 98.005 33.435 97.1899 32.7219 96.5066C30.0505 93.7121 29.4773 89.8935 28.7703 86.2261C28.7389 86.0637 28.7075 85.9012 28.6752 85.7338C28.2216 83.3536 28.2216 83.3536 28.2535 82.417C27.9297 82.355 27.9297 82.355 27.5993 82.2918C26.6084 82.0693 25.698 81.6991 24.7648 81.3023C24.5846 81.226 24.4043 81.1496 24.2186 81.0709C15.9042 77.4865 5.8158 70.8403 2.06733 62.159C2.06733 61.9876 2.06733 61.8162 2.06733 61.6396C1.92875 61.6146 1.79017 61.5896 1.6474 61.5638C1.20594 61.4664 1.20594 61.4664 1.03366 61.2933C1.03955 61.0154 1.05167 60.7376 1.06596 60.46C1.07794 59.3287 0.879243 58.2933 0.61992 57.1985C-0.0453358 54.2276 -0.0643944 51.1428 -0.0538373 48.1126C-0.0536378 47.9337 -0.0534383 47.7547 -0.0532327 47.5703C-0.0244536 34.4136 -0.0244535 34.4136 2.75643 31.5124C5.68089 28.9881 10.3021 29.2264 13.9329 29.229C14.0473 29.2291 14.1618 29.2291 14.2797 29.2292C17.9341 29.236 21.5344 29.6367 25.1525 30.1272C25.1848 29.9745 25.1848 29.9745 25.2179 29.8188C26.4022 24.2828 28.3021 19.0013 33.0658 15.5682C34.0856 14.9284 35.1344 14.371 36.3505 14.371C36.2936 14.2567 36.2368 14.1425 36.1782 14.0247C36.1601 13.76 36.1526 13.4945 36.1505 13.2292C36.1488 13.0637 36.1471 12.8982 36.1454 12.7277C36.1443 12.4578 36.1443 12.4578 36.1432 12.1824C36.1422 11.9964 36.1413 11.8105 36.1402 11.619C36.1386 11.2237 36.1375 10.8283 36.1368 10.433C36.1352 9.83562 36.1298 9.23836 36.1244 8.64101C36.097 2.92528 36.097 2.92528 37.7045 1.2181C38.9213 0.0940293 40.3125 -0.499652 41.9064 0.270539ZM39.1069 2.59717C38.13 4.09701 38.021 5.75128 38.0336 7.49866C38.0336 7.6801 38.0337 7.86155 38.0338 8.04849C38.0343 8.42899 38.0357 8.8095 38.0378 9.18999C38.041 9.77433 38.0413 10.3586 38.0413 10.943C38.0421 11.3135 38.0431 11.684 38.0443 12.0545C38.0445 12.2297 38.0447 12.4048 38.0449 12.5852C38.046 12.7465 38.0471 12.9079 38.0482 13.0741C38.0489 13.2163 38.0496 13.3584 38.0502 13.5049C38.0518 13.8642 38.0518 13.8642 38.2455 14.1979C38.5416 14.2495 38.8403 14.2864 39.1392 14.3169C40.8794 14.5781 42.3143 15.4715 43.7584 16.4488C43.6655 14.3941 43.4793 12.3607 43.2335 10.3189C43.1769 9.84704 43.1224 9.37492 43.068 8.90276C42.8265 5.34666 42.8265 5.34666 41.3465 2.25088C40.4246 1.63318 39.8625 1.81833 39.1069 2.59717ZM58.9188 8.65724C58.9363 8.76614 58.9538 8.87503 58.9719 8.98723C60.9345 21.2151 62.6827 33.6055 61.4294 46.0087C61.3363 46.9935 61.3498 47.9091 61.4563 48.8924C61.9729 53.9154 61.0886 60.491 57.9468 64.6073C57.679 64.9095 57.679 64.9095 57.7129 65.2756C58.1356 65.4829 58.5592 65.6882 58.9834 65.8924C59.1038 65.9517 59.2241 66.011 59.3482 66.072C59.6597 66.221 59.9781 66.3554 60.297 66.4876C60.4107 66.4305 60.5244 66.3734 60.6416 66.3145C60.6316 66.1917 60.6216 66.069 60.6113 65.9425C60.4051 61.0527 62.3576 55.9541 63.7628 51.3246C63.8578 51.0112 63.8578 51.0112 63.9548 50.6915C64.272 49.6478 64.591 48.6048 64.9133 47.5627C66.0299 43.9333 67.0634 40.2642 67.6834 36.5119C67.7176 36.3171 67.7518 36.1222 67.787 35.9215C68.0846 34.19 68.2486 32.493 68.2568 30.7359C68.2582 30.4822 68.2582 30.4822 68.2597 30.2234C68.2614 29.8666 68.2625 29.5098 68.2632 29.153C68.2648 28.6208 68.2702 28.0886 68.2756 27.5564C68.2918 24.5482 68.0738 21.5366 67.2312 18.6347C67.1871 18.4786 67.143 18.3225 67.0975 18.1617C66.0965 14.7433 64.4235 11.3173 61.289 9.42625C60.5585 9.04256 59.7573 8.65724 58.9188 8.65724ZM38.4178 16.1025C38.3578 17.6217 38.5794 19.0944 38.7947 20.5934C38.8159 20.7433 38.8371 20.8932 38.8589 21.0476C39.3515 24.5022 39.9645 27.936 40.5713 31.3717C41.9307 39.0762 41.9307 39.0762 42.2941 41.4249C42.3231 41.6121 42.3231 41.6121 42.3527 41.803C42.5976 43.4067 42.7853 45.0137 42.9522 46.6274C42.9712 46.8103 42.9903 46.9931 43.0099 47.1816C43.1023 48.0771 43.1908 48.9727 43.2722 49.8693C43.3037 50.1927 43.3352 50.5162 43.3668 50.8397C43.3787 50.9861 43.3907 51.1326 43.4031 51.2835C43.5 52.2439 43.7458 52.8675 44.2752 53.6749C44.3321 53.6749 44.3889 53.6749 44.4475 53.6749C44.6208 51.1792 44.6479 48.6916 44.6487 46.1905C44.6493 45.7684 44.6499 45.3463 44.6505 44.9243C44.6515 44.0404 44.6518 43.1565 44.6517 42.2725C44.6517 41.3849 44.6529 40.4972 44.6553 39.6096C44.6701 33.9821 44.6005 28.3707 44.2963 22.7507C44.2755 22.3405 44.2589 21.9303 44.2433 21.5199C44.2321 21.2698 44.2208 21.0197 44.2094 20.7695C44.2009 20.5548 44.1924 20.3401 44.1837 20.1189C44.0499 19.2018 43.6068 18.7321 42.897 18.1802C42.6918 18.0185 42.6918 18.0185 42.4825 17.8535C41.1804 16.8902 40.0433 16.2192 38.4178 16.1025ZM32.234 18.816C29.1128 22.0911 27.8361 26.2853 27.0475 30.6466C27.7242 30.904 28.4003 31.1593 29.0846 31.3954C33.4073 32.9104 36.276 35.8036 38.2904 39.8885C39.3326 42.0605 40.1666 44.3174 41.002 46.576C41.2585 45.8834 41.1155 45.2267 41.006 44.5178C40.9851 44.3766 40.9642 44.2353 40.9427 44.0898C40.8708 43.6088 40.7965 43.1283 40.722 42.6477C40.6963 42.4788 40.6706 42.3098 40.6441 42.1358C40.0837 38.4631 39.4215 34.8092 38.7634 31.1532C37.8745 26.214 37.047 21.2699 36.5228 16.2756C34.8543 16.2756 33.3592 17.6931 32.234 18.816ZM45.998 21.6431C46.0088 21.8397 46.0196 22.0363 46.0307 22.2389C46.2848 27.022 46.3664 31.7888 46.3309 36.5772C46.3267 37.1508 46.3232 37.7244 46.3197 38.298C46.3043 40.8083 46.2866 43.3185 46.2575 45.8286C46.2422 47.1569 46.2318 48.485 46.2269 49.8133C46.2236 50.6438 46.2144 51.474 46.2007 52.3043C46.1937 52.8167 46.1925 53.329 46.193 53.8414C46.1916 54.1893 46.1834 54.5371 46.1749 54.8849C46.1822 55.9782 46.2283 56.6378 47.0142 57.435C47.2461 57.629 47.4812 57.8192 47.7208 58.0035C48.5822 58.8693 48.5822 58.8693 48.844 59.1567C50.3587 60.772 52.2337 62.0393 54.0735 63.252C54.2256 63.3536 54.2256 63.3536 54.3808 63.4572C54.6232 63.6131 54.8753 63.7535 55.1287 63.8905C56.0397 63.4326 56.3509 61.4139 56.661 60.4934C59.2616 52.5262 59.2616 52.5262 58.9942 44.3359C58.9238 44.0525 58.9238 44.0525 58.8519 43.7634C56.9708 36.3903 52.9191 30.1257 48.2376 24.2403C48.1569 24.1386 48.0761 24.0369 47.9929 23.9321C47.3566 23.1334 46.7216 22.3632 45.998 21.6431ZM3.7901 33.2438C2.34012 35.1574 2.31112 38.2207 2.12116 40.5375C2.11033 40.6666 2.0995 40.7956 2.08834 40.9286C1.89306 43.3257 1.84403 45.719 1.84121 48.1235C1.84061 48.2876 1.84001 48.4518 1.83939 48.621C1.83462 50.9593 1.98134 53.2559 2.2396 55.5795C2.55654 55.1017 2.7147 54.7339 2.89641 54.1964C2.95648 54.0221 3.01655 53.8477 3.07845 53.6681C3.14274 53.4811 3.20703 53.2941 3.27327 53.1014C5.20763 47.5753 5.20763 47.5753 6.0297 46.7491C6.63789 46.6432 7.05818 46.6283 7.58129 46.9844C7.95826 47.3226 8.3141 47.6741 8.6677 48.0369C8.92846 48.2942 9.18934 48.5515 9.45035 48.8086C9.63635 48.9946 9.63635 48.9946 9.82611 49.1844C10.2219 49.5764 10.6306 49.9507 11.0473 50.3202C11.7684 50.9658 12.4745 51.6263 13.1792 52.2898C13.8913 52.9601 14.605 53.6276 15.3327 54.2809C16.167 55.0303 16.9837 55.7981 17.8006 56.5665C18.6441 57.3595 19.4926 58.1467 20.3462 58.9288C20.6886 59.2441 21.0286 59.5609 21.3664 59.8811C23.274 61.804 23.274 61.804 25.6693 62.8516C25.6575 62.6873 25.6575 62.6873 25.6455 62.5197C25.5439 61.101 25.4443 59.6822 25.3463 58.2633C25.3384 58.1487 25.3305 58.0342 25.3223 57.9161C25.0596 54.1039 24.8575 50.2925 24.7209 46.4734C24.6993 45.8859 24.6745 45.2986 24.6497 44.7112C24.6366 44.3526 24.6306 43.9938 24.6251 43.635C24.6083 42.4467 24.6083 42.4467 24.0004 41.4804C23.815 41.3328 23.6246 41.1915 23.4297 41.057C22.7935 40.5914 22.4296 40.3168 22.2453 39.5081C22.2382 39.3265 22.2311 39.1448 22.2238 38.9576C22.7686 38.5926 23.0001 38.5528 23.6343 38.5031C23.7895 38.4901 23.9447 38.4772 24.1047 38.4639C24.223 38.4554 24.3414 38.4469 24.4634 38.4382C24.6652 37.8296 24.6933 37.2528 24.7278 36.6181C24.7352 36.492 24.7426 36.3659 24.7503 36.236C24.7737 35.8338 24.7962 35.4316 24.8187 35.0294C24.8344 34.7565 24.8502 34.4836 24.8661 34.2107C24.9049 33.5421 24.9428 32.8736 24.9802 32.2049C21.244 31.5137 17.5794 31.1369 13.7822 31.1336C13.6649 31.1334 13.5477 31.1332 13.4269 31.133C8.23568 30.9832 8.23568 30.9832 3.7901 33.2438ZM26.8752 32.7244C26.2225 33.3804 26.5206 35.5967 26.519 36.4834C26.5204 37.2504 26.5241 38.0174 26.5307 38.7845C26.7097 38.8664 26.8887 38.9483 27.0731 39.0327C28.5953 39.7497 29.8353 40.4926 31.0099 41.7279C31.1731 41.8869 31.1731 41.8869 31.3396 42.0492C32.7358 43.4987 33.8507 45.8055 33.9723 47.8286C34.0995 49.6853 34.8489 50.5264 36.0725 51.8144C36.5117 52.2918 36.9041 52.8025 37.298 53.3178C37.4538 53.5197 37.6097 53.7215 37.7657 53.9231C37.8439 54.0242 37.922 54.1253 38.0025 54.2294C38.2532 54.5504 38.5074 54.8682 38.763 55.1852C39.9097 56.6075 40.9947 58.0596 42.0356 59.5618C42.4219 58.7855 42.1878 57.62 42.1494 56.762C42.1384 56.4906 42.1298 56.2192 42.124 55.9476C42.0828 54.0542 41.7333 52.6573 40.8672 50.9794C40.4483 50.1635 40.1249 49.3218 39.8081 48.4616C39.7528 48.3122 39.6974 48.1628 39.6404 48.0089C39.5271 47.7025 39.4142 47.396 39.3016 47.0894C36.4584 39.1864 36.4584 39.1864 30.3208 33.7633C29.2143 33.2604 28.1003 32.7803 26.8752 32.7244ZM26.5307 40.8622C26.5808 41.8086 27.1349 42.2515 27.775 42.873C27.8818 42.9794 27.9886 43.0857 28.0987 43.1953C28.4394 43.5339 28.7825 43.87 29.1256 44.2061C29.3574 44.4355 29.589 44.6651 29.8204 44.8949C30.3874 45.4571 30.9565 46.0171 31.5267 46.576C31.758 46.0613 31.758 46.0613 31.5187 45.5804C30.4505 43.5318 29.0117 41.858 26.8752 40.8622C26.7615 40.8622 26.6478 40.8622 26.5307 40.8622ZM26.5307 44.3251C26.4509 47.474 26.5763 50.5971 26.7676 53.7398C26.7785 53.921 26.7894 54.1022 26.8006 54.2888C26.9567 56.8584 27.1581 59.4223 27.3921 61.9859C28.1031 61.4401 28.5536 60.8994 28.9964 60.1246C29.0624 60.011 29.1284 59.8973 29.1964 59.7803C30.7588 57.0559 32.7057 53.6371 32.3881 50.3852C32.1123 49.9929 31.8742 49.7068 31.5375 49.3788C31.3613 49.1972 31.1852 49.0154 31.0092 48.8336C30.9213 48.7446 30.8333 48.6556 30.7426 48.5639C30.3941 48.2057 30.0675 47.8296 29.7394 47.4525C29.0924 46.7278 28.4199 46.0321 27.7366 45.3423C27.5876 45.1913 27.5876 45.1913 27.4356 45.0373C27.0467 44.5506 27.0467 44.5506 26.5307 44.3251ZM6.89109 49.1731C6.14914 50.5938 5.52965 52.0266 4.98527 53.5342C4.91136 53.738 4.83745 53.9417 4.7613 54.1517C3.28695 57.7475 3.28695 57.7475 3.86484 61.3985C5.05493 63.8768 6.7127 65.915 8.61386 67.8728C8.77738 68.0424 8.77738 68.0424 8.9442 68.2155C10.3189 69.6376 11.6988 70.9926 13.2653 72.2014C13.5242 72.408 13.5242 72.408 13.7882 72.6187C17.7705 75.7817 22.6416 78.9532 27.5644 80.3392C27.6781 80.2821 27.7918 80.2249 27.9089 80.1661C27.8769 79.9515 27.8449 79.7369 27.8119 79.5158C27.0808 74.6039 26.4105 69.6898 25.8416 64.7562C25.6171 64.6932 25.6171 64.6932 25.388 64.629C23.408 64.0503 23.408 64.0503 22.5683 63.371C22.3989 63.2342 22.2294 63.0974 22.0548 62.9564C21.2152 62.2282 20.3988 61.479 19.5941 60.712C19.0665 60.2102 18.5343 59.7133 18.003 59.2155C17.7845 59.0104 17.566 58.8052 17.3475 58.6001C16.4838 57.79 15.6153 56.9851 14.7464 56.1807C14.4663 55.9212 14.1865 55.6615 13.9067 55.4016C12.8372 54.4085 11.7656 53.4177 10.6913 52.4298C10.3154 52.0835 9.94103 51.7356 9.56744 51.3868C9.46762 51.2938 9.36779 51.2007 9.26495 51.1048C9.0736 50.9263 8.88246 50.7475 8.69159 50.5684C7.88168 49.6736 7.88168 49.6736 6.89109 49.1731ZM34.1109 52.4629C34.0289 52.7933 34.0289 52.7933 33.9453 53.1305C32.998 56.7855 31.3125 61.7151 28.0031 63.8911C27.3679 64.715 27.7788 66.3223 27.8985 67.3083C27.934 67.5881 27.934 67.5881 27.9701 67.8735C27.9946 68.0718 28.0191 68.2701 28.0443 68.4744C28.1237 69.1145 28.2046 69.7543 28.2858 70.3942C28.3129 70.611 28.3401 70.8277 28.3681 71.051C28.7866 74.3881 29.2437 77.7156 29.804 81.0318C33.0132 82.0143 36.264 82.6652 39.6238 82.7633C40.0287 81.6315 40.3205 80.4995 40.5605 79.322C40.5971 79.1431 40.6337 78.9643 40.6714 78.78C41.5291 74.4766 42.0331 70.1184 42.1736 65.7322C42.1893 65.2556 42.2244 64.8113 42.2907 64.3375C42.4319 63.1001 42.0086 62.4375 41.2819 61.4881C40.9962 61.1301 40.7068 60.7755 40.4152 60.4223C40.0131 59.9229 39.6528 59.3978 39.29 58.8693C38.4011 57.5993 37.4254 56.4038 36.4414 55.2077C36.1959 54.9085 35.9521 54.608 35.7092 54.3066C34.9438 53.3542 34.9438 53.3542 34.1109 52.4629ZM43.9307 56.6184C43.9103 58.5894 43.9538 60.5397 44.103 62.5053C44.1598 62.5053 44.2167 62.5053 44.2752 62.5053C44.3127 61.7505 44.3466 60.9957 44.3772 60.2406C44.3882 59.9838 44.4 59.727 44.4129 59.4702C44.4312 59.1011 44.4461 58.732 44.4603 58.3627C44.4752 58.0295 44.4752 58.0295 44.4904 57.6895C44.4982 57.14 44.4982 57.14 44.1883 56.8015C44.1033 56.7411 44.0183 56.6806 43.9307 56.6184ZM46.1703 59.2155C46.1403 60.0779 46.1185 60.9399 46.104 61.8026C46.098 62.0955 46.0898 62.3884 46.0793 62.6811C45.9426 64.6186 45.9426 64.6186 46.7322 66.3043C47.0535 66.5991 47.0535 66.5991 47.3762 66.8339C47.5086 66.9515 47.6409 67.0692 47.7773 67.1904C47.8866 67.2691 47.9958 67.3479 48.1084 67.4291C48.2194 67.511 48.3305 67.5929 48.4449 67.6773C49.3172 68.2281 50.3503 68.1689 51.3386 68.0459C52.4682 67.6432 53.5199 67.0997 54.2673 66.1413C54.3242 65.9699 54.381 65.7985 54.4396 65.6219C54.3426 65.5585 54.2457 65.495 54.1458 65.4296C51.4663 63.6704 48.9481 61.928 46.7268 59.6031C46.6 59.4752 46.4732 59.3473 46.3426 59.2155C46.2857 59.2155 46.2289 59.2155 46.1703 59.2155ZM43.9307 65.7951C43.9186 65.9628 43.9066 66.1306 43.8942 66.3035C43.5175 71.4891 42.9537 76.5535 41.775 81.6267C41.6696 82.1088 41.6696 82.1088 41.6911 82.7633C50.0912 83.1285 58.3831 79.7846 64.7762 74.4523C64.9166 74.3371 65.0569 74.222 65.2015 74.1033C65.5121 73.775 65.5121 73.775 65.4472 73.3282C64.9147 71.8279 63.7854 70.8459 62.6248 69.8268C62.1921 69.4311 62.1921 69.4311 62.0198 69.0848C61.7305 68.9412 61.434 68.8122 61.1349 68.6905C60.9535 68.6158 60.7722 68.5412 60.5854 68.4643C60.3943 68.3869 60.2032 68.3096 60.0063 68.2299C59.6322 68.0772 59.2583 67.9241 58.8845 67.7707C58.6212 67.6632 58.6212 67.6632 58.3526 67.5536C57.8851 67.3534 57.8851 67.3534 57.2788 67.028C56.8728 66.8047 56.8728 66.8047 56.478 66.8502C56.082 67.047 55.8742 67.2716 55.5917 67.6131C55.4867 67.7381 55.3816 67.8631 55.2734 67.9918C55.0686 68.2505 54.8694 68.5136 54.6772 68.7818C53.6776 70.1694 52.2119 71.5359 50.4772 71.8551C48.9686 72.0271 47.7631 71.895 46.5148 70.9894C45.0848 69.7677 44.638 68.1041 44.36 66.2969C44.3181 66.1342 44.3181 66.1342 44.2752 65.9682C44.1615 65.9111 44.0478 65.8539 43.9307 65.7951ZM47.8931 69.6042C48.2834 69.9965 48.5549 70.1141 49.1064 70.1406C49.2283 70.1386 49.3502 70.1366 49.4759 70.1345C49.6926 70.1309 49.9094 70.1274 50.1327 70.1237C50.1327 70.0665 50.1327 70.0094 50.1327 69.9505C49.3936 69.8363 48.6545 69.722 47.8931 69.6042ZM30.3208 83.1095C30.4051 84.6074 30.6336 86.031 30.9668 87.4923C31.0133 87.6973 31.0597 87.9023 31.1075 88.1135C32.0087 92.1694 32.0087 92.1694 34.4554 95.4028C34.5691 95.4028 34.6828 95.4028 34.8 95.4028C36.1231 92.865 37.2696 90.3035 38.2455 87.6113C38.2958 87.4732 38.3461 87.3352 38.398 87.1929C38.9752 85.8614 38.9752 85.8614 38.9346 84.4947C38.7636 84.4779 38.7636 84.4779 38.5891 84.4608C35.7884 84.1786 33.0641 83.743 30.3208 83.1095Z" fill="var(--fill-0, #335744)"/>
</g>
<defs>
<clipPath id="clip0_0_249">
<rect width="174" height="98" fill="white"/>
</clipPath>
</defs>
</svg>
