<svg viewBox="0 0 100 100" xmlns="http://www.w3.org/2000/svg">
  <defs>
    <radialGradient id="g3" cx="42%" cy="38%" r="64%">
      <stop offset="0%" stop-color="#f7f1e2"/>
      <stop offset="45%" stop-color="#e2d5bc"/>
      <stop offset="100%" stop-color="#bba98c"/>
    </radialGradient>
  </defs>
  <path d="M48,5 C60,3 74,9 83,20 C92,31 94,48 88,61 C82,74 69,83 55,85 C41,87 26,82 17,70 C8,58 7,41 13,28 C19,15 32,7 45,5 C46,5 47,5 48,5 Z" fill="url(#g3)"/>
  <path d="M26,32 Q38,44 34,60 Q30,74 44,80" stroke="#a08860" stroke-width="1.3" fill="none" opacity="0.65"/>
  <path d="M54,12 Q66,26 60,44 Q54,60 64,72" stroke="#a08860" stroke-width="1.1" fill="none" opacity="0.6"/>
  <path d="M14,52 Q30,47 42,57 Q54,66 72,60" stroke="#aa9870" stroke-width="1" fill="none" opacity="0.5"/>
  <path d="M38,24 Q52,36 66,31 Q77,28 82,40" stroke="#a08860" stroke-width="1" fill="none" opacity="0.6"/>
  <path d="M20,70 Q36,65 48,74 Q60,82 73,75" stroke="#a08860" stroke-width="0.9" fill="none" opacity="0.5"/>
  <path d="M36,46 Q46,42 54,50 Q62,58 54,68" stroke="#a08860" stroke-width="0.8" fill="none" opacity="0.45"/>
  <path d="M60,30 Q70,40 76,52 Q80,62 72,70" stroke="#a08860" stroke-width="0.8" fill="none" opacity="0.4"/>
  <ellipse cx="43" cy="35" rx="11" ry="7" fill="white" opacity="0.2" transform="rotate(-25 43 35)"/>
</svg>
